<svg width="232" height="41" viewBox="0 0 232 41" fill="none" xmlns="http://www.w3.org/2000/svg">
<g clip-path="url(#clip0_350_1296)">
<path d="M30.8072 7.49993C30.634 7.32677 30.4609 7.15361 30.2877 6.80729C30.8072 6.80729 31.3267 6.80729 31.673 6.80729C32.0193 6.80729 32.5388 6.80729 33.0583 6.80729C32.8851 6.28781 32.7119 5.76833 32.5388 5.422C31.8461 4.20988 31.673 3.17092 32.5388 1.9588C32.5388 1.78564 32.7119 1.78564 32.8851 1.43932C32.5388 1.43932 32.1925 1.26616 31.8461 1.26616C29.4219 1.093 26.8245 1.093 24.4003 1.61248C23.8808 1.78564 23.7076 1.9588 23.7076 2.30512C23.7076 3.34408 23.8808 4.38304 23.8808 5.422C23.8808 5.76833 24.0539 6.28781 24.4003 6.63413C26.305 8.19257 27.6903 10.0973 28.5561 12.1753C30.1145 16.1579 30.4609 20.1406 28.2098 23.9501C26.8245 26.3744 25.2661 28.7986 22.1492 29.1449C19.5518 29.4913 16.9544 29.8376 14.357 29.1449C13.4912 28.9718 12.4522 28.9718 11.5864 28.2791C10.028 27.067 8.81584 25.5086 7.77688 23.9501C4.48684 18.2359 6.91108 10.4437 11.4132 6.80729C11.9327 6.46097 12.279 5.94149 12.279 5.24884C12.279 4.38304 12.4522 3.34408 12.4522 2.30512C12.4522 1.78564 12.279 1.61248 11.7596 1.61248C9.50848 1.093 6.91108 1.093 4.48684 1.26616C4.14051 1.26616 3.79419 1.26616 3.27471 1.43932C4.48684 2.8246 4.48684 4.20988 3.27471 5.59517C3.10155 5.94149 3.10155 6.28781 3.10155 6.80729C4.14051 6.80729 4.83316 6.80729 5.69896 6.80729C5.69896 6.98045 5.5258 7.15361 5.5258 7.32677C3.27471 9.92417 1.88943 13.0411 1.02363 16.3311C-0.0153293 20.4869 -0.188489 24.6428 1.36995 28.6255C3.10155 32.7813 5.87212 36.0714 10.2011 37.803C10.5474 37.9761 10.8938 38.3224 11.2401 38.6688C11.5864 39.0151 11.7596 39.3614 12.1059 39.5346C15.3959 40.7467 18.686 40.9198 21.976 40.054C23.1881 39.7077 24.5734 39.5346 25.0929 38.1493C25.0929 37.9761 25.4392 37.803 25.6124 37.803C25.9587 37.6298 26.4782 37.4566 26.8245 37.2835C31.673 34.8592 34.6167 30.8766 35.4825 25.5086C36.5215 18.9285 34.963 12.8679 30.8072 7.49993ZM21.976 29.4913C21.8029 30.0107 21.6297 30.5302 21.2834 31.0497C21.2834 31.2229 20.9371 31.396 20.9371 31.396C19.0323 31.7424 17.1275 31.7424 15.2228 31.396C15.0496 31.396 14.8764 31.2229 14.8764 31.0497C14.7033 30.5302 14.5301 30.1839 14.1838 29.4913C16.7812 30.0107 19.3786 30.0107 21.976 29.4913ZM11.0669 37.1103C11.0669 37.2835 10.5474 37.2835 10.3743 37.2835C7.2574 36.0714 4.83316 34.1666 3.27471 31.396C-0.53481 24.9891 -0.188489 18.5822 3.10155 12.0021C3.96735 10.2705 5.17948 8.53889 6.56476 7.15361L6.73792 6.98045L7.60372 5.94149H7.2574C6.04528 5.94149 5.00632 5.94149 3.79419 5.94149C4.66 4.5562 4.83316 3.17092 3.79419 1.78564C4.83316 1.78564 5.87212 1.61248 6.91108 1.61248C8.46952 1.61248 9.8548 1.78564 11.4132 1.9588C11.9327 1.9588 12.279 2.30512 12.279 2.8246C12.1059 3.6904 12.1059 4.5562 11.9327 5.422C11.9327 5.76833 11.5864 6.11465 11.4132 6.28781C11.0669 6.63413 10.8938 6.98045 10.5474 7.15361C5.69896 11.8289 5.00632 18.7553 7.08424 23.777C8.29636 26.5475 10.028 28.6255 12.6254 30.0107C12.7985 30.1839 12.9717 30.5302 12.9717 30.7034C12.9717 32.9545 12.1059 35.0324 11.0669 37.1103ZM11.7596 38.4956C11.0669 37.803 11.0669 37.6298 11.5864 36.764C12.7985 34.8592 13.4912 32.435 13.8375 29.6644C14.357 30.3571 14.7033 31.0497 14.5301 31.7423C14.357 33.1276 12.4522 37.4566 11.7596 38.4956ZM13.318 37.4566C13.6643 36.764 13.8375 36.2445 14.0106 35.725C14.357 34.6861 14.7033 33.6471 15.0496 32.6082C15.2228 32.2618 15.3959 32.0887 15.7422 32.0887C17.3007 32.0887 18.8591 32.0887 20.4176 32.0887C20.7639 32.0887 20.9371 32.0887 21.1102 32.435C21.6297 33.9934 22.3223 35.5519 22.8418 37.1103C22.8418 37.1103 22.8418 37.2835 23.015 37.4566C19.7249 38.4956 16.608 38.4956 13.318 37.4566ZM24.4003 38.6688C23.1881 36.4177 22.3223 34.1666 21.6297 31.7423C21.4565 31.0497 21.8029 30.3571 22.3223 29.6644C22.4955 30.5302 22.4955 31.2229 22.6687 31.9155C23.015 33.6471 23.7076 35.2056 24.5734 36.764C25.0929 37.6298 25.0929 37.6298 24.4003 38.6688ZM35.4825 23.4307C34.963 28.7986 32.7119 33.3008 28.0366 36.0714C27.344 36.4177 26.6513 36.764 25.9587 37.1103C25.6124 37.2835 25.4392 37.2835 25.2661 36.9372C24.2271 35.0324 23.5345 32.9545 23.3613 30.7034C23.3613 30.3571 23.3613 30.0108 23.7076 29.8376C26.6513 28.4523 28.5561 26.0281 29.5951 23.0843C31.4998 17.0237 30.2877 11.6558 25.7855 7.15361C24.5734 6.11465 24.0539 5.07568 24.0539 3.86356C24.0539 1.78564 23.7076 1.9588 25.9587 1.61248C28.0366 1.26616 30.2877 1.43932 32.5388 1.61248C31.4998 2.99776 31.673 4.38304 32.5388 5.76833C31.1535 5.76833 29.9414 5.76833 28.3829 5.76833C28.9024 6.28781 29.2487 6.80729 29.7682 7.15361C33.9241 11.8289 36.002 17.1969 35.4825 23.4307Z" fill="#828282"/>
<path d="M20.0717 32.6079C19.379 32.6079 18.6864 32.7811 17.9937 32.7811C17.1279 32.7811 16.4353 32.7811 15.5695 32.6079C15.05 34.1664 14.3574 35.7248 13.8379 37.2832C16.6085 38.149 19.379 38.149 22.1496 37.2832C21.6301 35.7248 21.1106 34.3395 20.5911 32.7811C20.5911 32.7811 20.2448 32.6079 20.0717 32.6079ZM14.8769 36.5906C15.2232 35.3785 15.5695 34.3395 15.9158 33.1274C15.9158 32.9542 16.2621 32.9542 16.4353 32.9542C17.6474 32.9542 18.8595 32.9542 20.0717 32.9542C20.2448 32.9542 20.5911 33.1274 20.5911 33.3006C20.9375 34.3395 21.2838 35.5516 21.6301 36.5906C19.2059 37.2832 16.9548 37.2832 14.8769 36.5906Z" fill="#828282"/>
<path d="M24.9199 32.0888C25.2662 32.7814 25.4394 33.6472 25.7857 34.3398C27.3442 33.6472 29.7684 31.7424 29.9416 31.0498C29.2489 31.3961 28.5563 31.9156 27.6905 32.2619C26.6515 32.9546 25.7857 32.7814 24.9199 32.0888Z" fill="#828282"/>
<path d="M32.8855 23.6036C32.5392 24.4694 32.0197 25.3352 30.8076 25.3352C31.5003 25.8547 31.8466 26.201 32.3661 26.5473C33.0587 25.3352 33.7513 22.3915 33.405 21.3525C33.2319 22.0452 33.2319 22.911 32.8855 23.6036Z" fill="#828282"/>
<path d="M31.6729 16.3313C32.1923 16.5045 32.7118 16.5045 33.2313 16.5045C32.7118 14.946 32.3655 13.7339 31.846 12.3486H31.6729C32.0192 13.7339 32.5387 14.946 31.6729 16.3313Z" fill="#828282"/>
<path d="M11.4132 32.0888C11.0669 32.7814 10.8938 33.6472 10.5474 34.3398C8.989 33.6472 6.56476 31.7424 6.3916 31.0498C7.08424 31.3961 7.77688 31.9156 8.64268 32.2619C9.50849 32.9546 10.3743 32.7814 11.4132 32.0888Z" fill="#828282"/>
<path d="M3.27468 23.6036C3.621 24.4694 4.14048 25.3352 5.35261 25.3352C4.65996 25.8547 4.31364 26.201 3.79416 26.5473C3.10152 25.3352 2.40888 22.3915 2.7552 21.3525C2.92836 22.0452 3.10152 22.911 3.27468 23.6036Z" fill="#828282"/>
<path d="M4.48715 16.3313C3.96767 16.5045 3.62135 16.5045 2.92871 16.5045C3.44819 14.946 3.79451 13.7339 4.31399 12.3486H4.48715C4.14083 13.7339 3.62135 14.946 4.48715 16.3313Z" fill="#828282"/>
<path d="M8.46946 4.90291C8.81578 5.07607 10.0279 4.90291 10.5474 4.21027C10.3742 4.38343 9.50842 4.72975 9.33526 4.55659C9.33526 4.38343 9.33526 4.03711 9.33526 4.03711C9.33526 4.03711 8.12314 4.72975 8.46946 4.90291Z" fill="#828282"/>
<path d="M12.2791 30.3572C8.46953 28.2793 6.21845 25.1624 5.69897 21.0066C5.00633 15.6386 6.39161 10.9633 10.3743 7.15376C11.4133 6.1148 11.7596 5.249 11.9327 4.03688C12.1059 1.7858 12.1059 2.30528 10.2011 1.95896C8.29637 1.61264 6.21845 1.61264 4.31369 1.95896C4.83317 3.17108 4.83317 4.3832 3.96737 5.59532C5.35265 5.59532 6.56477 5.59532 7.95005 5.59532C7.43057 6.28796 7.08425 6.63428 6.73793 7.15376C3.96737 10.617 1.88945 14.4265 1.19681 18.7555C0.331007 24.8161 1.88945 30.0109 6.39161 34.3399C7.43057 35.3789 8.98901 36.0715 10.2011 36.9373C10.5475 37.1105 10.7206 37.1105 11.0669 36.7642C11.9327 35.0326 12.4522 33.1278 12.6254 31.223C12.6254 30.7035 12.4522 30.3572 12.2791 30.3572ZM11.0669 2.82476C8.98901 3.5174 8.12321 1.95896 8.12321 1.95896C8.12321 1.95896 10.8938 2.82476 11.0669 2.82476ZM8.81586 2.99792C8.81586 2.99792 8.81586 2.99792 8.6427 2.99792C5.87213 1.7858 5.35265 2.99792 5.35265 2.99792C5.69897 0.573678 8.81586 2.99792 8.81586 2.99792ZM8.12321 4.3832C8.64269 4.21004 8.81586 4.03688 8.81586 4.03688C8.81586 4.03688 7.60373 4.55636 6.91109 4.21004C6.91109 4.21004 6.73793 3.86372 8.12321 3.69056C8.12321 3.69056 5.69897 2.99792 5.87213 4.55636C6.21845 4.90268 6.39161 5.07584 6.73793 5.07584C6.56477 5.249 5.52581 5.94164 4.83317 4.72952C4.83317 4.21004 4.83317 3.86372 5.00633 3.69056C5.00633 3.69056 5.69897 2.99792 8.46953 3.17108C8.98901 3.17108 11.2401 3.34424 11.5864 2.82476C11.5864 2.99792 11.5864 4.90268 8.6427 5.07584C7.43057 5.249 6.91109 5.249 8.12321 4.3832ZM6.39161 8.71221C6.56477 8.01957 7.25741 6.28796 8.98902 5.76848C9.33534 5.59532 11.2401 4.90268 11.4133 4.03688C11.4133 4.03688 11.7596 5.76848 10.5475 6.46112C10.2011 6.63428 9.33533 7.15376 9.33533 7.32692C9.33533 7.15376 9.16218 6.80744 9.68166 5.94164C9.5085 6.1148 6.21845 7.84641 8.29637 9.05853C8.12321 9.23169 7.43057 9.75117 6.91109 8.36589C6.91109 8.71221 6.73793 8.71221 6.91109 9.75117C6.91109 10.2706 7.08425 11.4828 6.21845 11.3096C6.04529 11.3096 5.69897 11.4828 6.39161 8.71221ZM5.00633 10.7901C6.21845 11.6559 6.21845 11.8291 5.87213 13.2144C5.35265 14.0802 5.17949 15.1191 4.83317 16.1581C4.83317 16.3313 4.48685 16.6776 4.31369 16.6776C3.79421 16.8507 3.27473 16.8507 2.58209 16.8507C3.10157 14.5997 3.96737 12.6949 5.00633 10.7901ZM2.40893 19.9676C3.10157 20.1408 3.62105 20.1408 4.14053 20.3139C4.31369 20.3139 4.66001 20.6603 4.66001 20.8334C5.00633 22.2187 5.35265 23.604 5.69897 24.9893C5.69897 25.1624 5.69897 25.5087 5.52581 25.6819C5.00633 26.2014 4.31369 26.7209 3.62105 27.2403C2.58209 24.8161 2.23577 22.3919 2.40893 19.9676ZM11.5864 31.9157C11.2401 32.9546 11.0669 33.8204 10.7206 34.8594C8.29637 33.8204 6.56477 32.0888 5.17949 30.0109C5.87213 29.4914 6.73793 28.9719 7.43057 28.4525C7.60373 28.4525 7.77689 28.4525 7.95005 28.6256C9.16218 29.4914 10.2011 30.5304 11.4133 31.3962C11.4133 31.3962 11.5864 31.7425 11.5864 31.9157Z" fill="#828282"/>
<path d="M27.6902 4.90291C28.0365 4.72975 26.9976 4.03711 26.9976 4.03711C26.9976 4.03711 26.9976 4.38343 26.9976 4.55659C26.8244 4.72975 25.9586 4.38343 25.6123 4.21027C26.1318 4.90291 27.3439 4.90291 27.6902 4.90291Z" fill="#828282"/>
<path d="M34.9631 18.7555C34.2704 14.4265 32.1925 10.617 29.4219 7.15376C29.0756 6.63428 28.5561 6.28796 28.0367 5.59532C29.4219 5.59532 30.6341 5.59532 32.0193 5.59532C31.1535 4.3832 31.1535 3.17108 31.8462 1.95896C29.7683 1.61264 27.8635 1.61264 25.9587 1.95896C24.054 2.30528 24.054 1.7858 24.2271 4.03688C24.2271 5.249 24.7466 6.28796 25.6124 7.15376C29.5951 10.9633 31.1535 15.6386 30.2877 21.0066C29.7683 25.1624 27.5172 28.2793 23.7076 30.3572C23.5345 30.5304 23.3613 30.8767 23.3613 31.0499C23.5345 32.9546 24.054 34.8594 24.9198 36.591C25.0929 36.9373 25.4392 37.1105 25.7856 36.7642C26.9977 35.8984 28.5561 35.2057 29.5951 34.1668C34.2704 30.0109 36.002 24.8161 34.9631 18.7555ZM30.8072 2.82476C30.8072 2.82476 30.1146 1.7858 27.5172 2.82476C27.344 2.82476 27.344 2.82476 27.344 2.82476C27.344 2.82476 30.4609 0.573678 30.8072 2.82476ZM28.0367 1.95896C28.0367 1.95896 27.1709 3.5174 25.0929 2.82476C25.2661 2.82476 28.0367 1.95896 28.0367 1.95896ZM24.7466 2.82476C25.0929 3.17108 27.1709 3.17108 27.6903 2.99792C30.4609 2.82476 31.1535 3.5174 31.1535 3.5174C31.3267 3.69056 31.4999 4.03688 31.3267 4.55636C30.8072 5.76848 29.7683 5.07584 29.5951 4.90268C29.9414 4.90268 30.1146 4.72952 30.4609 4.3832C30.6341 2.6516 28.2098 3.34424 28.2098 3.5174C29.5951 3.69056 29.4219 4.03688 29.4219 4.03688C28.7293 4.3832 27.5172 3.86372 27.5172 3.86372C27.5172 3.86372 27.5172 4.03688 28.2098 4.21004C29.4219 5.07584 28.9025 5.07584 27.8635 5.07584C24.5734 5.07584 24.7466 2.99792 24.7466 2.82476ZM29.9414 11.3096C29.2488 11.4828 29.2488 10.2706 29.2488 9.75117C29.4219 8.71221 29.2488 8.71221 29.2488 8.36589C28.7293 9.75117 28.0367 9.23169 28.0367 9.05853C29.9414 7.84641 26.8245 6.1148 26.4782 5.94164C26.9977 6.63428 26.8245 7.15376 26.6514 7.15376C26.6514 6.9806 25.9587 6.46112 25.6124 6.28796C24.4003 5.59532 24.7466 3.86372 24.7466 3.86372C24.9198 4.72952 26.8245 5.42216 27.1709 5.59532C28.9025 6.28796 29.5951 7.84641 29.7683 8.53905C30.4609 11.4828 30.1146 11.3096 29.9414 11.3096ZM30.4609 13.2144C29.9414 11.8291 29.9414 11.8291 31.3267 10.7901C32.3657 12.6949 33.0583 14.5997 33.5778 16.6776C32.8851 16.6776 32.3657 16.6776 31.8462 16.5044C31.673 16.5044 31.4999 16.1581 31.3267 15.9849C30.9804 15.1191 30.8072 14.0802 30.4609 13.2144ZM25.4392 34.8594C25.0929 33.8204 24.7466 32.7815 24.5734 31.9157C24.5734 31.7425 24.7466 31.5693 24.7466 31.3962C25.7856 30.5304 26.9977 29.4914 28.2098 28.6256C28.383 28.4525 28.7293 28.4525 28.7293 28.4525C29.4219 28.9719 30.1146 29.4914 30.9804 30.0109C29.5951 32.262 27.8635 33.8204 25.4392 34.8594ZM32.5388 27.2403C31.8462 26.7209 31.1535 26.2014 30.6341 25.6819C30.4609 25.5087 30.4609 25.1624 30.4609 24.9893C30.8072 23.604 31.1535 22.2187 31.4999 20.8334C31.4999 20.6603 31.8462 20.3139 32.0193 20.3139C32.5388 20.1408 33.2315 20.1408 33.7509 19.9676C33.9241 22.3919 33.5778 24.8161 32.5388 27.2403Z" fill="#828282"/>
<path d="M64.0543 1.43945H69.0759V2.13209C67.5175 2.13209 66.6517 3.17105 66.6517 4.90266C66.6517 5.07582 66.6517 5.24898 66.6517 5.42214L67.6907 18.5823C67.8638 19.9676 68.037 21.0066 68.3833 21.3529C68.7296 21.8724 69.4223 22.0455 70.2881 22.2187V22.9113H62.669V22.2187C63.5348 22.0455 64.0543 21.8724 64.4006 21.3529C64.7469 20.8334 64.9201 20.3139 64.9201 19.4481C64.9201 19.275 64.9201 19.1018 64.9201 18.9286L63.708 5.07582L56.4353 22.7382H55.9158L48.643 5.24898L47.4309 18.4092C47.4309 18.5823 47.4309 18.7555 47.4309 18.9286C47.4309 20.8334 48.2967 21.8724 50.2015 22.2187V22.9113H43.4482V22.2187C44.314 22.0455 45.0067 21.6992 45.353 21.3529C45.6993 20.8334 46.0456 19.7944 46.2188 18.4092L47.4309 3.69054C46.7383 2.82473 45.6993 2.30525 44.6604 2.13209V1.43945H50.0283L56.9547 18.236L64.0543 1.43945Z" fill="#828282"/>
<path d="M85.3529 22.9111V22.2185C86.565 22.2185 87.2577 21.8722 87.2577 21.0064C87.2577 20.8332 87.2577 20.4869 87.0845 20.1406L85.1798 14.2531H78.2533L76.8681 18.5821C76.5217 19.6211 76.3486 20.4869 76.3486 21.0064C76.3486 21.8722 76.8681 22.3917 78.0802 22.3917V23.0843H72.5391V22.3917C73.4049 22.2185 73.9243 22.0453 74.4438 21.5259C74.9633 21.1795 75.3096 20.3137 75.8291 18.9284L81.7165 1.26611H83.9676L90.2014 19.7943C90.5477 20.8332 90.894 21.5259 91.4135 21.8722C91.7598 22.2185 92.4525 22.3917 93.3183 22.3917V23.0843H85.3529V22.9111ZM78.4265 12.8678H84.4871L81.3702 3.86352L78.4265 12.8678Z" fill="#828282"/>
<path d="M112.886 1.09308V7.50001H112.193C111.673 5.59525 110.808 4.0368 109.769 3.171C108.557 2.3052 107.171 1.78572 105.266 1.78572C102.842 1.78572 100.937 2.65152 99.5522 4.38313C98.1669 6.11473 97.3011 8.53897 97.3011 11.3095C97.3011 14.5996 97.9937 17.0238 99.5522 19.1017C101.111 21.1797 103.015 22.0455 105.44 22.0455C108.73 22.0455 111.327 20.487 112.886 17.3701L113.405 17.8896C112.712 19.6212 111.5 21.0065 109.942 21.8723C108.383 22.7381 106.479 23.4307 104.401 23.4307C102.496 23.4307 100.591 22.9113 99.0327 22.0455C97.3011 21.1797 96.089 19.7944 95.2232 18.2359C94.3574 16.6775 93.8379 14.7727 93.8379 12.6948C93.8379 9.23161 94.8769 6.46105 96.9548 4.20996C99.379 1.95888 101.976 0.919922 105.093 0.919922C106.132 0.919922 107.518 1.09308 109.249 1.4394C110.115 1.61256 110.808 1.78572 111.154 1.78572C111.673 1.78572 112.02 1.61256 112.366 1.09308H112.886Z" fill="#828282"/>
<path d="M126.046 22.9113H116.176V22.2187C117.042 22.2187 117.734 22.0455 118.081 21.526C118.427 21.0066 118.6 20.1408 118.6 18.9286V5.42214C118.6 4.03686 118.427 3.17105 118.081 2.65157C117.734 2.13209 117.042 1.95893 116.176 1.95893V1.43945H124.314C126.565 1.43945 128.47 1.95893 129.855 2.82473C131.241 3.8637 131.933 5.07582 131.933 6.63426C131.933 8.88534 130.548 10.6169 127.604 11.4827V11.6559C129.163 12.0022 130.548 12.6949 131.587 13.907C132.626 14.9459 133.145 16.3312 133.145 17.7165C133.145 19.275 132.453 20.4871 131.241 21.526C129.682 22.3918 128.124 22.9113 126.046 22.9113ZM121.371 2.30525V11.3096H123.622C125.18 11.3096 126.392 10.9633 127.258 10.0975C128.124 9.23166 128.643 8.1927 128.643 6.80742C128.643 5.42214 128.124 4.21002 127.258 3.34421C126.392 2.47841 125.007 2.13209 123.449 2.13209H121.371V2.30525ZM123.449 12.1754H121.371V18.4092C121.371 19.7944 121.544 20.6602 121.89 21.1797C122.236 21.6992 122.756 21.8724 123.622 21.8724H125.353C126.565 21.8724 127.604 21.526 128.47 20.6602C129.336 19.7944 129.682 18.7555 129.682 17.3702C129.682 15.8117 129.163 14.4265 127.951 13.5607C126.739 12.6949 125.353 12.1754 123.449 12.1754Z" fill="#828282"/>
<path d="M148.729 9.57798H149.422V14.7728H148.729C148.556 13.907 148.21 13.2143 147.863 13.0412C147.517 12.868 146.824 12.6949 145.785 12.6949H140.417V20.3139C140.417 20.8334 140.591 21.1797 140.764 21.526C140.937 21.6992 141.456 21.8724 141.976 21.8724H145.785C147.171 21.8724 148.037 21.8724 148.556 21.6992C149.075 21.526 149.422 21.3529 149.768 20.8334C150.114 20.3139 150.461 19.7944 150.98 18.9286H151.673L150.634 22.9113H135.223V22.2187C136.262 22.2187 136.781 22.0455 137.127 21.526C137.474 21.0066 137.647 20.1408 137.647 18.9286V5.42214C137.647 4.03686 137.474 3.17105 137.127 2.65157C136.781 2.13209 136.088 1.95893 135.223 1.95893V1.43945H150.634V5.07582H150.288C150.114 4.03686 149.768 3.34422 149.422 2.99789C149.075 2.65157 148.21 2.47841 146.824 2.47841H140.591V11.6559H146.651C147.517 11.6559 148.037 11.4827 148.383 11.1364C148.729 10.7901 148.556 10.4438 148.729 9.57798Z" fill="#828282"/>
<path d="M170.721 18.236H171.414L170.029 22.9113H154.444V22.2187C155.31 22.2187 156.003 21.8724 156.349 21.3529C156.695 20.8334 156.869 19.9676 156.869 18.5823V5.24898C156.869 4.03686 156.695 3.34422 156.349 2.82473C156.003 2.30525 155.31 2.13209 154.444 2.13209V1.43945H162.063V2.13209C161.198 2.13209 160.678 2.47841 160.159 2.99789C159.812 3.51738 159.639 4.38318 159.639 5.5953V19.9676C159.639 20.8334 159.812 21.3529 160.159 21.526C160.505 21.6992 161.198 22.0455 162.063 22.0455H166.566C167.951 22.0455 168.817 21.8724 169.336 21.3529C169.856 20.8334 170.375 19.7944 170.721 18.236Z" fill="#828282"/>
<path d="M189.423 18.236H190.115L188.73 22.9113H173.146V22.2187C174.011 22.2187 174.704 21.8724 175.05 21.3529C175.397 20.8334 175.57 19.9676 175.57 18.5823V5.24898C175.57 4.03686 175.397 3.34422 175.05 2.82473C174.704 2.30525 174.011 2.13209 173.146 2.13209V1.43945H180.765V2.13209C179.899 2.13209 179.379 2.47841 178.86 2.99789C178.513 3.51738 178.34 4.38318 178.34 5.5953V19.9676C178.34 20.8334 178.513 21.3529 178.86 21.526C179.206 21.6992 179.899 22.0455 180.765 22.0455H185.094C186.479 22.0455 187.345 21.8724 187.864 21.3529C188.384 20.8334 189.076 19.7944 189.423 18.236Z" fill="#828282"/>
<path d="M209.682 17.7167H210.374L209.509 22.9115H191.5V22.392L205.699 2.65175H196.522C195.136 2.65175 194.271 2.82491 193.578 3.17123C193.058 3.51755 192.539 4.2102 192.193 5.24916H191.673L192.019 1.61279H209.509V2.30543L195.483 22.0457H203.621C205.353 22.0457 206.738 21.6994 207.777 21.0067C208.47 20.3141 209.162 19.102 209.682 17.7167Z" fill="#828282"/>
<path d="M228.21 4.55634L223.362 12.1754V18.9286C223.362 20.3139 223.535 21.1797 223.881 21.526C224.227 22.0455 224.747 22.2187 225.786 22.2187V22.9113H217.994V22.2187C219.033 22.2187 219.725 22.0455 220.072 21.526C220.418 21.0066 220.591 20.1408 220.591 18.9286V12.1754L216.089 5.07582C215.396 3.8637 214.704 3.17105 214.184 2.82473C213.665 2.47841 212.972 2.30525 212.279 2.30525V1.43945H220.591V2.13209C219.033 2.13209 218.34 2.47841 218.34 3.17105C218.34 3.51737 218.513 3.8637 218.859 4.38318L223.015 10.7901L226.478 5.42214C226.998 4.55634 227.171 3.8637 227.171 3.34421C227.171 2.47841 226.652 2.13209 225.786 2.13209V1.43945H231.673V2.13209C230.807 2.13209 230.288 2.30525 229.768 2.65157C229.249 2.82473 228.73 3.51737 228.21 4.55634Z" fill="#828282"/>
<path d="M107.864 31.2227H106.305V38.8418C106.305 39.3613 106.305 39.8807 106.478 40.0539C106.651 40.2271 106.825 40.4002 107.344 40.4002V40.7465H103.881V40.4002C104.4 40.4002 104.574 40.2271 104.747 40.0539C104.92 39.8807 104.92 39.3613 104.92 38.8418V31.3959H103.535C102.842 31.3959 102.322 31.5691 101.976 31.7422C101.63 31.9154 101.457 32.2617 101.457 32.7812H101.11V30.3569H101.457C101.803 30.5301 102.149 30.7033 103.015 30.7033H108.21C108.903 30.7033 109.422 30.5301 109.768 30.3569H110.115V32.608H109.942C109.768 32.0885 109.595 31.7422 109.249 31.5691C108.903 31.3959 108.383 31.2227 107.864 31.2227Z" fill="#F0E0C2"/>
<path d="M110.98 35.5519C110.98 34.1666 111.5 32.9545 112.539 31.9156C113.578 30.8766 114.79 30.5303 116.348 30.5303C117.734 30.5303 119.119 31.0498 119.985 32.0887C121.024 33.1277 121.543 34.3398 121.543 35.7251C121.543 37.1104 121.024 38.4956 119.985 39.3614C118.946 40.4004 117.734 40.9199 116.175 40.9199C114.79 40.9199 113.405 40.4004 112.539 39.3614C111.5 38.3225 110.98 37.1104 110.98 35.5519ZM112.366 35.7251C112.366 37.1104 112.712 38.3225 113.405 39.1883C114.097 40.0541 114.963 40.5736 116.175 40.5736C117.214 40.5736 118.253 40.0541 118.946 39.1883C119.638 38.3225 119.985 37.1104 119.985 35.7251C119.985 34.3398 119.638 33.1277 118.946 32.2619C118.253 31.3961 117.387 30.8766 116.348 30.8766C115.136 30.8766 114.271 31.3961 113.578 32.2619C112.712 33.1277 112.366 34.1666 112.366 35.7251Z" fill="#F0E0C2"/>
<path d="M127.604 40.5733H123.102V40.2269C123.448 40.2269 123.794 40.0538 123.967 39.8806C124.141 39.7075 124.141 39.188 124.141 38.6685V32.6079C124.141 32.0884 124.141 31.5689 123.967 31.3958C123.794 31.2226 123.448 31.0494 123.102 31.0494V30.7031H126.738C127.777 30.7031 128.643 30.8763 129.335 31.3958C130.028 31.9152 130.201 32.4347 130.201 33.1274C130.201 34.1663 129.508 34.859 128.296 35.3784C128.989 35.5516 129.682 35.8979 130.201 36.4174C130.721 36.9369 130.894 37.4564 130.894 38.149C130.894 38.8417 130.547 39.5343 130.028 39.8806C129.508 40.2269 128.47 40.5733 127.604 40.5733ZM125.526 31.0494V35.2053H126.565C127.257 35.2053 127.777 35.0321 128.296 34.6858C128.643 34.3395 128.989 33.82 128.989 33.1274C128.989 32.4347 128.816 31.9152 128.296 31.5689C127.95 31.2226 127.257 31.0494 126.565 31.0494H125.526ZM126.392 35.7248H125.526V38.6685C125.526 39.3611 125.526 39.7075 125.699 40.0538C125.872 40.2269 126.045 40.4001 126.565 40.4001H127.431C127.95 40.4001 128.47 40.2269 128.816 39.8806C129.162 39.5343 129.335 39.0148 129.335 38.3222C129.335 37.6295 129.162 36.9369 128.643 36.5906C127.95 35.8979 127.257 35.7248 126.392 35.7248Z" fill="#F0E0C2"/>
<path d="M137.474 40.5733V40.2269C137.994 40.2269 138.34 40.0538 138.34 39.7075C138.34 39.5343 138.34 39.5343 138.34 39.3611L137.474 36.5906H134.357L133.665 38.6685C133.492 39.188 133.492 39.5343 133.492 39.7075C133.492 40.0538 133.665 40.4001 134.184 40.4001V40.7464H131.587V40.4001C131.933 40.4001 132.28 40.2269 132.453 40.0538C132.626 39.8806 132.799 39.5343 133.145 38.8417L135.916 30.7031H136.955L139.899 39.188C140.072 39.7075 140.245 40.0538 140.418 40.2269C140.591 40.4001 140.938 40.4001 141.284 40.4001V40.7464H137.474V40.5733ZM134.357 36.0711H137.128L135.743 31.9152L134.357 36.0711Z" fill="#F0E0C2"/>
<path d="M150.288 30.5301V33.4738H149.942C149.768 32.608 149.249 31.9154 148.729 31.3959C148.21 30.8764 147.517 30.7033 146.652 30.7033C145.613 30.7033 144.574 31.0496 144.054 31.9154C143.361 32.7812 143.015 33.8201 143.015 35.2054C143.015 36.7639 143.361 37.8028 144.054 38.8418C144.747 39.8807 145.613 40.2271 146.825 40.2271C148.383 40.2271 149.595 39.5344 150.288 37.976L150.634 38.1491C150.288 39.0149 149.768 39.5344 149.076 40.0539C148.383 40.5734 147.517 40.7465 146.478 40.7465C145.613 40.7465 144.747 40.5734 144.054 40.0539C143.361 39.7076 142.669 39.0149 142.323 38.3223C141.976 37.6297 141.63 36.7639 141.63 35.7249C141.63 34.1665 142.149 32.7812 143.015 31.9154C143.881 31.0496 145.266 30.3569 146.652 30.3569C147.171 30.3569 147.69 30.3569 148.556 30.5301C148.903 30.7033 149.249 30.7033 149.422 30.7033C149.595 30.7033 149.768 30.5301 149.942 30.3569H150.288V30.5301Z" fill="#F0E0C2"/>
<path d="M160.85 30.5301V33.4738H160.504C160.331 32.608 159.811 31.9154 159.292 31.3959C158.772 30.8764 158.08 30.7033 157.214 30.7033C156.175 30.7033 155.136 31.0496 154.617 31.9154C153.924 32.7812 153.578 33.8201 153.578 35.2054C153.578 36.7639 153.924 37.8028 154.617 38.8418C155.309 39.8807 156.175 40.2271 157.387 40.2271C158.946 40.2271 160.158 39.5344 160.85 37.976L161.197 38.1491C160.85 39.0149 160.331 39.5344 159.638 40.0539C158.946 40.5734 158.08 40.7465 157.041 40.7465C156.175 40.7465 155.309 40.5734 154.617 40.0539C153.924 39.7076 153.231 39.0149 152.885 38.3223C152.539 37.6297 152.192 36.7639 152.192 35.7249C152.192 34.1665 152.712 32.7812 153.578 31.9154C154.443 31.0496 155.829 30.3569 157.214 30.3569C157.734 30.3569 158.253 30.3569 159.119 30.5301C159.465 30.7033 159.811 30.7033 159.985 30.7033C160.158 30.7033 160.331 30.5301 160.504 30.3569H160.85V30.5301Z" fill="#F0E0C2"/>
<path d="M162.756 35.5519C162.756 34.1666 163.275 32.9545 164.314 31.9156C165.353 30.8766 166.565 30.5303 168.124 30.5303C169.509 30.5303 170.894 31.0498 171.76 32.0887C172.799 33.1277 173.319 34.3398 173.319 35.7251C173.319 37.1104 172.799 38.4956 171.76 39.3614C170.721 40.4004 169.509 40.9199 167.951 40.9199C166.565 40.9199 165.18 40.4004 164.314 39.3614C163.275 38.3225 162.756 37.1104 162.756 35.5519ZM164.141 35.7251C164.141 37.1104 164.487 38.3225 165.18 39.1883C165.873 40.0541 166.739 40.5736 167.951 40.5736C168.99 40.5736 170.029 40.0541 170.721 39.1883C171.414 38.3225 171.76 37.1104 171.76 35.7251C171.76 34.3398 171.414 33.1277 170.721 32.2619C170.029 31.3961 169.163 30.8766 168.124 30.8766C166.912 30.8766 166.046 31.3961 165.353 32.2619C164.487 33.1277 164.141 34.1666 164.141 35.7251Z" fill="#F0E0C2"/>
</g>
<defs>
<clipPath id="clip0_350_1296">
<rect width="231.169" height="40" fill="white" transform="translate(0.331055 0.919922)"/>
</clipPath>
</defs>
</svg>
