<svg width="81" height="62" viewBox="0 0 81 62" fill="none" xmlns="http://www.w3.org/2000/svg">
<g clip-path="url(#clip0_350_920)">
<path d="M55.1008 7.32075C54.9005 7.12021 54.8004 6.8194 54.4999 6.51859C55.1008 6.51859 55.6016 6.51859 56.1024 6.51859C56.6031 6.51859 57.1039 6.51859 57.805 6.51859C57.5045 5.8167 57.4044 5.21508 57.2041 4.81401C56.3027 3.41023 56.3027 2.207 57.2041 0.803221C57.3042 0.702951 57.4044 0.502412 57.5045 0.301872C57.0038 0.201603 56.6031 0.201603 56.2025 0.201603C53.298 0.00106354 50.3936 0.00106357 47.4891 0.602681C46.9883 0.702951 46.6878 0.90349 46.788 1.50511C46.8881 2.70834 46.8881 3.91158 47.0885 5.11481C47.1886 5.61616 47.3889 6.21778 47.6894 6.51859C49.8928 8.32344 51.4953 10.5294 52.597 13.1364C54.4999 17.7488 54.8004 22.3612 52.2965 26.8733C50.694 29.7811 48.8912 32.4884 45.0854 32.9898C41.9806 33.4911 38.9759 33.6917 35.9713 33.09C34.8696 32.7892 33.6677 32.9898 32.6662 32.1876C30.7632 30.7838 29.3611 29.0793 28.2594 26.9736C24.3533 20.1553 27.2578 11.131 32.4659 6.91967C33.0668 6.41832 33.4674 5.91697 33.4674 5.21508C33.5676 4.01185 33.6677 2.80861 33.7679 1.60538C33.7679 1.10403 33.5676 0.90349 33.0668 0.803221C30.1623 0.201603 27.2578 0.301872 24.3533 0.402142C23.9527 0.402142 23.4519 0.502412 22.9512 0.502412C24.3533 2.207 24.2532 3.81131 23.0513 5.41562C22.6507 5.51589 22.7509 6.01724 22.6507 6.51859C23.7524 6.51859 24.754 6.51859 25.7555 6.51859C25.5552 6.8194 25.455 7.01994 25.3549 7.12021C22.851 10.2286 21.1484 13.8383 20.247 17.7488C19.1453 22.5617 18.8448 27.4749 20.7478 32.1876C22.7509 37.1008 25.9558 40.8108 30.9635 42.8162C31.3642 43.0167 31.6646 43.5181 32.0652 43.8189C32.3657 44.1197 32.7663 44.621 33.167 44.7213C36.9728 46.1251 40.8789 46.3256 44.7849 45.4232C46.1871 45.1224 47.7895 44.9219 48.4906 43.2173C48.5908 43.0167 48.7911 42.9165 48.9914 42.8162C49.392 42.6157 49.8928 42.4151 50.3936 42.2146C56.0022 39.3068 59.4075 34.6944 60.409 28.4776C61.8112 20.8571 59.8081 13.738 55.1008 7.32075ZM44.7849 33.09C44.4844 33.7919 44.2841 34.2933 43.9837 34.8949C43.8835 35.0954 43.6832 35.1957 43.4829 35.296C41.2795 35.6971 39.0761 35.6971 36.7725 35.296C36.5722 35.296 36.3719 35.0954 36.2717 34.8949C35.9713 34.3935 35.771 33.7919 35.4705 33.1903C38.6755 33.7919 41.6801 33.7919 44.7849 33.09ZM31.9651 41.9138C31.8649 42.1143 31.4643 42.1143 31.1639 42.1143C27.6584 40.8108 24.754 38.5046 22.851 35.1957C18.4442 27.6755 18.8448 20.1553 22.5506 12.5348C23.5521 10.4291 24.9543 8.62425 26.5567 6.8194C26.5567 6.71913 26.6569 6.61886 26.7571 6.51859L27.7586 5.31535H27.358C26.056 5.31535 24.754 5.31535 23.2516 5.31535C24.3533 3.71104 24.4535 2.207 23.3518 0.502412C24.6538 0.402142 25.8557 0.301872 26.9574 0.301872C28.7601 0.402142 30.4628 0.502412 32.2656 0.702951C32.9666 0.803221 33.2671 1.10403 33.167 1.80592C33.0668 2.80861 32.9666 3.91158 32.7663 4.91428C32.6662 5.31535 32.3657 5.61616 32.1654 6.01724C31.8649 6.41832 31.5645 6.71913 31.1639 7.12021C25.5552 12.5348 24.6538 20.7569 27.1577 26.4722C28.4597 29.5806 30.4628 32.1876 33.7679 33.6917C33.9682 33.7919 34.2687 34.193 34.2687 34.4938C34.1685 37.1008 33.2671 39.6076 31.9651 41.9138ZM32.8665 43.7186C32.0652 42.8162 32.0652 42.7159 32.6662 41.7132C34.0683 39.5073 34.9697 36.6997 35.2702 33.3909C35.9713 34.193 36.2717 34.9952 36.0714 35.7973C35.771 37.3014 33.6677 42.5154 32.8665 43.7186ZM34.5691 42.5154C34.8696 41.8135 35.17 41.1116 35.4705 40.51C35.8711 39.3068 36.3719 38.1035 36.7725 36.8C36.8727 36.3989 37.073 36.1984 37.5738 36.1984C39.3765 36.1984 41.1793 36.1984 42.9821 36.1984C43.3827 36.1984 43.583 36.1984 43.7833 36.5995C44.3843 38.4043 45.0854 40.2092 45.7864 42.1143C45.7864 42.2146 45.8866 42.3148 45.8866 42.5154C41.9806 43.7186 38.375 43.7186 34.5691 42.5154ZM47.5892 43.8189C46.1871 41.2119 45.1855 38.5046 44.3843 35.7973C44.184 34.8949 44.6847 34.193 45.1855 33.3909C45.2857 34.3935 45.3858 35.1957 45.5861 35.9979C45.9868 38.0033 46.6878 39.9084 47.6894 41.613C48.2903 42.6157 48.3905 42.6157 47.5892 43.8189ZM60.5092 26.0712C60.0084 32.3882 57.3042 37.5019 51.6956 40.9111C50.8943 41.4124 49.9929 41.7132 49.1917 42.1143C48.7911 42.3148 48.4906 42.2146 48.2903 41.8135C47.0885 39.5073 46.2872 37.1008 45.9868 34.5941C45.9868 34.193 45.9867 33.8922 46.3874 33.6917C49.8928 32.0873 52.0962 29.2798 53.1979 25.7704C55.5014 18.6512 54.0993 12.3342 48.7911 7.01994C47.6894 5.91697 47.0885 4.61347 46.9883 3.10942C46.9883 0.702951 46.5877 1.00376 49.1917 0.602681C51.6956 0.201603 54.1994 0.301872 56.9036 0.602681C55.8019 2.207 55.9021 3.81131 57.0038 5.41562C55.4013 5.41562 53.899 5.41562 52.1963 5.41562C52.8974 6.01724 53.3982 6.51859 53.899 7.01994C58.8065 12.4345 61.1101 18.7515 60.5092 26.0712Z" fill="#828282"/>
<path d="M42.5814 36.6997C41.7802 36.6997 40.979 36.8 40.2779 36.8C39.2763 36.8 38.3749 36.6997 37.4736 36.6997C36.7725 38.6048 36.0714 40.4097 35.4705 42.2145C38.7756 43.2172 41.9805 43.2172 45.1855 42.2145C44.5845 40.4097 43.9836 38.7051 43.3827 37.0005C43.0822 36.8 42.7817 36.6997 42.5814 36.6997ZM36.3718 41.4124C36.7725 40.0086 37.1731 38.7051 37.5737 37.4016C37.5737 37.3013 37.8742 37.1008 38.0745 37.1008C39.4766 37.1008 40.8788 37.1008 42.281 37.1008C42.4813 37.1008 42.7817 37.3013 42.8819 37.4016C43.2825 38.7051 43.6831 40.0086 44.0838 41.3121C41.4797 42.1143 38.8757 42.1143 36.3718 41.4124Z" fill="#828282"/>
<path d="M48.0901 36.1984C48.3906 37.1008 48.7912 38.0033 49.0916 38.9057C50.9946 38.2038 53.6988 35.8976 53.8991 35.0955C53.0978 35.5968 52.1964 36.1984 51.1949 36.5995C50.1933 37.0006 49.0916 36.9003 48.0901 36.1984Z" fill="#828282"/>
<path d="M57.5046 26.2717C57.2041 27.3747 56.6032 28.2771 55.0007 28.2771C55.7018 28.8787 56.3027 29.2798 56.9037 29.6809C57.8051 28.2771 58.5061 24.7677 58.2057 23.5645C58.0054 24.4669 57.8051 25.3693 57.5046 26.2717Z" fill="#828282"/>
<path d="M56.1023 17.7488C56.7032 17.7488 57.204 17.8491 57.9051 17.8491C57.3042 16.1445 56.8034 14.5402 56.3026 13.0361C56.2025 13.0361 56.1023 13.0361 56.1023 13.1364C56.4028 14.6404 57.1038 16.1445 56.1023 17.7488Z" fill="#828282"/>
<path d="M32.2655 36.1984C31.9651 37.1008 31.5644 38.0033 31.264 38.9057C29.361 38.2038 26.6569 35.8976 26.4565 35.0955C27.2578 35.5968 28.1592 36.1984 29.1607 36.5995C30.1623 37.0006 31.264 36.9003 32.2655 36.1984Z" fill="#828282"/>
<path d="M22.851 26.2717C23.1515 27.3747 23.7524 28.2771 25.3549 28.2771C24.6538 28.8787 24.0529 29.2798 23.4519 29.6809C22.5506 28.2771 21.8495 24.7677 22.1499 23.5645C22.4504 24.4669 22.5506 25.3693 22.851 26.2717Z" fill="#828282"/>
<path d="M24.2532 17.7488C23.6523 17.7488 23.1515 17.8491 22.4504 17.8491C23.0514 16.1445 23.5521 14.5402 24.0529 13.0361C24.1531 13.0361 24.2532 13.0361 24.2532 13.1364C23.9528 14.6404 23.2517 16.1445 24.2532 17.7488Z" fill="#828282"/>
<path d="M29.0604 4.31276C29.4611 4.41302 30.8632 4.31276 31.4642 3.5106C31.1637 3.71114 30.2623 4.11222 29.9618 3.91168C29.9618 3.81141 29.9618 3.31006 29.9618 3.31006C29.9618 3.31006 28.6598 4.21249 29.0604 4.31276Z" fill="#828282"/>
<path d="M33.3673 33.9925C28.9604 31.6863 26.3564 27.9763 25.6553 23.0631C24.7539 16.7461 26.5567 11.2313 31.1638 6.81941C32.2656 5.81671 32.7663 4.61348 32.8665 3.2097C33.0668 0.602694 33.1669 1.10404 30.8634 0.803234C28.5598 0.402155 26.3564 0.502425 23.9527 0.803234C24.6538 2.30728 24.6538 3.61078 23.7524 5.11483C25.3549 5.11483 26.757 5.11483 28.3595 5.11483C27.7586 5.81671 27.2578 6.31806 26.757 6.91968C23.4519 10.9305 21.0482 15.3423 20.247 20.4561C19.2454 27.475 21.1484 33.6917 26.4566 38.6049C27.7586 39.8081 29.4612 40.6103 30.9635 41.613C31.3642 41.9138 31.6646 41.7132 31.8649 41.3122C32.9666 39.2065 33.5676 37.0006 33.7679 34.7946C33.868 34.4938 33.5676 34.0928 33.3673 33.9925ZM31.9651 1.9062C29.5614 2.70836 28.5598 0.903503 28.5598 0.903503C28.5598 0.903503 31.8649 1.80593 31.9651 1.9062ZM29.3611 2.00647C29.3611 2.00647 29.3611 2.00647 29.1608 1.9062C25.9558 0.502425 25.2547 1.80593 25.2547 1.80593C25.7555 -0.80108 29.3611 2.00647 29.3611 2.00647ZM28.5598 3.71105C29.2609 3.41024 29.2609 3.30997 29.2609 3.30997C29.2609 3.30997 27.9589 3.91159 27.0575 3.51051C27.0575 3.41024 26.8572 3.10944 28.3595 2.9089C28.3595 2.9089 25.6553 2.00647 25.7555 4.01186C26.1561 4.41294 26.2563 4.51321 26.757 4.51321C26.6569 4.71375 25.3549 5.41564 24.7539 4.01186C24.7539 3.41024 24.8541 2.9089 25.0544 2.70836C25.0544 2.70836 25.8556 1.80593 29.0606 2.10674C29.6615 2.20701 32.2656 2.30728 32.566 1.9062C32.566 2.10674 32.6662 4.41294 29.0606 4.61348C27.7586 4.71375 27.1577 4.71375 28.5598 3.71105ZM26.5567 8.8248C26.757 8.02265 27.5583 6.01725 29.6615 5.31537C30.0621 5.11483 32.2656 4.31267 32.3657 3.30997C32.3657 3.30997 32.6662 5.41564 31.264 6.11752C30.8634 6.41833 30.0621 6.91968 30.0621 7.22049C29.8618 7.01995 29.7617 6.41833 30.2625 5.61618C30.0621 5.61618 26.2563 7.82211 28.66 9.12561C28.5598 9.32615 27.7586 10.1283 27.1577 8.32346C27.0575 8.62426 26.8572 8.62426 27.0575 9.92777C27.0575 10.6297 27.2578 12.0334 26.3564 11.8329C26.056 11.7326 25.7555 12.0334 26.5567 8.8248ZM24.7539 11.2313C26.2563 12.3342 26.2563 12.4345 25.6553 13.9386C25.2547 15.0415 25.0544 16.2448 24.6538 17.3477C24.5536 17.5483 24.3533 17.9493 24.153 17.9493C23.5521 18.0496 22.851 18.0496 22.1499 18.1499C22.7509 15.6431 23.6522 13.4372 24.7539 11.2313ZM21.7493 21.8599C22.5505 21.9601 23.2516 22.0604 23.8526 22.2609C24.0529 22.3612 24.3533 22.662 24.4535 22.8626C24.8541 24.4669 25.2547 26.1714 25.6553 27.7758C25.7555 27.9763 25.6553 28.3774 25.5552 28.4776C24.8541 29.0793 24.153 29.6809 23.2516 30.3828C22.1499 27.5752 21.6492 24.8679 21.7493 21.8599ZM32.566 35.8976C32.2656 37.0006 31.8649 38.2038 31.5645 39.407C28.7601 38.1035 26.757 36.1984 25.1546 33.7919C26.056 33.0901 26.8572 32.4884 27.7586 31.8868C27.8587 31.7865 28.2594 31.8868 28.4597 31.9871C29.7617 33.0901 31.1639 34.0927 32.4659 35.1957C32.4659 35.3963 32.566 35.6971 32.566 35.8976Z" fill="#828282"/>
<path d="M51.2948 4.31276C51.6954 4.21249 50.4935 3.31006 50.4935 3.31006C50.4935 3.31006 50.4935 3.81141 50.4935 3.91168C50.1931 4.11222 49.2917 3.61087 48.9912 3.5106C49.5921 4.31275 50.8941 4.41302 51.2948 4.31276Z" fill="#828282"/>
<path d="M60.0083 20.4561C59.2071 15.3423 56.9035 10.8302 53.4983 6.9197C52.9975 6.41835 52.5969 5.81673 51.8958 5.11484C53.4982 5.11484 55.0006 5.11484 56.5029 5.11484C55.6015 3.6108 55.6015 2.30729 56.3026 0.80325C53.8989 0.402172 51.5953 0.402172 49.3919 0.80325C47.0883 1.20433 47.2887 0.602711 47.3888 3.20972C47.489 4.6135 47.9897 5.71646 49.0914 6.81943C53.6986 11.2313 55.5013 16.7461 54.6 23.0631C53.8989 27.9763 51.2948 31.6863 46.888 33.9925C46.6877 34.0928 46.3873 34.4938 46.4874 34.7947C46.6877 37.1009 47.2887 39.3068 48.3904 41.3122C48.5907 41.7133 48.8911 41.9138 49.2918 41.613C50.7941 40.6103 52.4967 39.8081 53.7987 38.6049C59.1069 33.6917 61.0099 27.5752 60.0083 20.4561ZM55.1007 1.90622C55.1007 1.90622 54.3996 0.602711 51.1947 2.00649C50.9944 2.00649 50.9944 2.00649 50.9944 2.00649C50.9944 2.00649 54.6 -0.801064 55.1007 1.90622ZM51.6955 0.90352C51.6955 0.90352 50.7941 2.6081 48.2902 1.90622C48.4905 1.80595 51.6955 0.90352 51.6955 0.90352ZM47.8896 2.00649C48.1901 2.50783 50.7941 2.30729 51.395 2.20703C54.6 1.90622 55.4012 2.80864 55.4012 2.80864C55.6015 3.00918 55.7017 3.51053 55.7017 4.11215C55.0006 5.51592 53.7987 4.81404 53.6986 4.6135C54.1993 4.6135 54.2995 4.51323 54.7001 4.11215C54.8003 2.10676 52.0961 2.90891 52.0961 3.00918C53.5984 3.20972 53.4982 3.51053 53.3981 3.6108C52.4967 4.01188 51.1947 3.41026 51.1947 3.41026C51.1947 3.41026 51.2948 3.51053 51.8958 3.81134C53.2979 4.81404 52.697 4.81404 51.4952 4.71377C47.7894 4.51323 47.8896 2.20703 47.8896 2.00649ZM54.0992 11.8329C53.1978 12.0334 53.3981 10.6297 53.3981 9.92779C53.5984 8.72455 53.3981 8.62428 53.2979 8.32347C52.697 10.1283 51.8958 9.32617 51.7956 9.12563C54.1993 7.82212 50.3935 5.61619 50.1931 5.61619C50.6939 6.41835 50.5938 7.01997 50.4936 7.12024C50.4936 6.81943 49.6924 6.31808 49.2918 6.01727C47.8896 5.31538 48.1901 3.20972 48.1901 3.20972C48.2902 4.21242 50.5938 5.11484 50.8942 5.21511C52.7972 6.01727 53.5984 8.02266 53.7987 8.82482C54.6 12.0334 54.2995 11.7326 54.0992 11.8329ZM54.6 14.0388C54.0992 12.4345 53.999 12.3343 55.5013 11.3316C56.7032 13.5375 57.6046 15.7434 58.1054 18.3504C57.4043 18.2502 56.7032 18.2502 56.1023 18.1499C55.902 18.1499 55.7017 17.7488 55.6015 17.5483C55.2009 16.345 55.0006 15.1418 54.6 14.0388ZM48.791 39.4071C48.3904 38.1035 48.0899 37.0006 47.7894 35.8976C47.7894 35.6971 47.8896 35.3963 48.0899 35.296C49.3919 34.193 50.6939 33.0901 52.0961 32.0874C52.2964 31.9871 52.5969 31.8868 52.7972 31.9871C53.6986 32.5887 54.4998 33.1903 55.4012 33.8922C53.5984 36.2987 51.5953 38.2038 48.791 39.4071ZM57.1038 30.3828C56.2024 29.6809 55.5013 29.1796 54.8003 28.4777C54.7001 28.3774 54.6 27.9763 54.7001 27.7758C55.1007 26.1715 55.5013 24.4669 55.902 22.8626C56.0021 22.5618 56.2024 22.261 56.5029 22.261C57.1038 22.0604 57.8049 22.0604 58.6061 21.8599C58.7063 24.868 58.2055 27.5752 57.1038 30.3828Z" fill="#828282"/>
<path d="M9.3301 51.9407H11.4333V52.1413C10.7323 52.1413 10.4318 52.5423 10.4318 53.3445C10.4318 53.4448 10.4318 53.4448 10.4318 53.545L10.9326 59.0599C11.0327 59.6615 11.1329 60.0626 11.233 60.2631C11.4333 60.4636 11.6337 60.5639 12.0343 60.5639V60.8647H8.72917V60.5639C9.02964 60.4636 9.3301 60.3634 9.43025 60.2631C9.63056 60.1628 9.73072 59.862 9.73072 59.5612C9.73072 59.4609 9.73072 59.3607 9.73072 59.3607L9.22995 53.545L6.12515 60.965H5.92484L2.9202 53.545L2.41943 59.0599C2.41943 59.1601 2.41943 59.2604 2.41943 59.2604C2.41943 60.0626 2.82005 60.4636 3.62128 60.6642V60.965H0.716797V60.6642C1.11742 60.5639 1.31773 60.4636 1.51803 60.2631C1.71834 60.0626 1.8185 59.6615 1.8185 58.9596L2.31927 52.7429C2.11896 52.4421 1.71834 52.2415 1.21757 52.1413V51.8405H3.52113L6.42561 58.9596L9.3301 51.9407Z" fill="#828282"/>
<path d="M18.2439 60.8647V60.5639C18.7446 60.5639 19.0451 60.3634 19.0451 60.0626C19.0451 59.9623 19.0451 59.862 18.9449 59.7618L18.1437 57.255H15.2392L14.6383 59.0599C14.438 59.5612 14.438 59.862 14.438 60.0626C14.438 60.4636 14.6383 60.6642 15.1391 60.6642V60.965H12.7354V60.6642C13.0358 60.6642 13.3363 60.4636 13.5366 60.3634C13.7369 60.2631 13.9372 59.862 14.1375 59.2604L16.6414 51.8405H17.5428L20.1468 59.5612C20.3471 60.0626 20.4473 60.2631 20.6476 60.4636C20.8479 60.6642 21.0482 60.6642 21.4488 60.6642V60.965H18.2439V60.8647ZM15.4395 56.7537H17.9434L16.6414 52.9434L15.4395 56.7537Z" fill="#828282"/>
<path d="M29.8618 51.7402V54.4475H29.5613C29.361 53.6453 28.9604 53.0437 28.5598 52.6426C28.059 52.2416 27.4581 52.041 26.6568 52.041C25.6553 52.041 24.8541 52.4421 24.2531 53.144C23.6522 53.8459 23.3517 54.8486 23.3517 56.0518C23.3517 57.3553 23.6522 58.4583 24.2531 59.2604C24.8541 60.0626 25.7555 60.4637 26.757 60.4637C28.1592 60.4637 29.2609 59.7618 29.8618 58.4583L30.0621 58.6588C29.7616 59.3607 29.2609 59.9623 28.5598 60.3634C27.8587 60.7645 27.1576 60.965 26.2562 60.965C25.455 60.965 24.6538 60.7645 23.9527 60.3634C23.2516 59.9623 22.7508 59.461 22.3502 58.7591C21.9496 58.0572 21.7493 57.3553 21.7493 56.4529C21.7493 55.0491 22.1499 53.8459 23.0513 52.9434C23.9527 52.041 25.0544 51.5397 26.3564 51.5397C26.757 51.5397 27.3579 51.6399 28.059 51.7402C28.4596 51.8405 28.7601 51.8405 28.8603 51.8405C29.0606 51.8405 29.2609 51.7402 29.361 51.5397H29.8618V51.7402Z" fill="#828282"/>
<path d="M35.3703 60.8647H31.2639V60.5639C31.6645 60.5639 31.8648 60.4636 32.0652 60.2631C32.2655 60.0626 32.2655 59.6615 32.2655 59.1601V53.545C32.2655 53.0437 32.1653 52.6426 32.0652 52.4421C31.965 52.2415 31.6645 52.1413 31.2639 52.1413V51.8405H34.6692C35.6707 51.8405 36.3718 52.041 36.9727 52.4421C37.5737 52.8431 37.774 53.3445 37.774 54.0464C37.774 55.0491 37.173 55.6507 35.9712 56.0518C36.6723 56.152 37.173 56.4529 37.6738 56.9542C38.0744 57.4556 38.2747 57.9569 38.2747 58.5585C38.2747 59.2604 37.9743 59.7618 37.4735 60.1628C36.8726 60.6642 36.1715 60.8647 35.3703 60.8647ZM33.3672 52.2415V56.0518H34.2686C34.8695 56.0518 35.4704 55.8512 35.871 55.5504C36.2716 55.2496 36.472 54.7483 36.472 54.1467C36.472 53.545 36.2716 53.0437 35.871 52.7429C35.4704 52.4421 34.9696 52.2415 34.2686 52.2415H33.3672ZM34.2686 56.4529H33.3672V59.0599C33.3672 59.6615 33.4673 60.0626 33.5675 60.2631C33.6676 60.4636 33.9681 60.5639 34.2686 60.5639H34.9696C35.4704 60.5639 35.871 60.3634 36.2717 60.0626C36.5721 59.7618 36.7724 59.2604 36.7724 58.6588C36.7724 57.9569 36.5721 57.4556 36.0713 57.0545C35.6707 56.6534 35.0698 56.4529 34.2686 56.4529Z" fill="#828282"/>
<path d="M44.8851 55.3499H45.1856V57.5558H44.8851C44.7849 57.1547 44.6848 56.9542 44.4845 56.8539C44.3843 56.7537 44.0838 56.7537 43.5831 56.7537H41.3797V59.9623C41.3797 60.1628 41.3797 60.3634 41.4798 60.4636C41.58 60.5639 41.7803 60.5639 41.9806 60.5639H43.5831C44.184 60.5639 44.4845 60.5639 44.7849 60.4636C44.9852 60.3634 45.1855 60.2631 45.2857 60.1628C45.3859 59.9623 45.5862 59.7618 45.7865 59.3607H46.0869L45.6863 61.0653H39.1763V60.7644C39.5769 60.7644 39.8774 60.6642 39.9775 60.4636C40.0777 60.2631 40.1778 59.862 40.1778 59.3607V53.7456C40.1778 53.2442 40.0777 52.8431 39.9775 52.6426C39.8774 52.4421 39.5769 52.1413 39.1763 52.1413V51.8405H45.6863V53.3445H45.486C45.3859 52.9434 45.2857 52.6426 45.0854 52.4421C44.8851 52.2415 44.5846 52.2415 43.9837 52.2415H41.3797V56.152H43.8835C44.184 56.152 44.4845 56.0518 44.5846 55.9515C44.6848 55.8512 44.7849 55.6507 44.8851 55.3499Z" fill="#828282"/>
<path d="M54.0993 58.9596H54.3998L53.7989 60.965H47.2888V60.6642C47.6894 60.6642 47.8897 60.5639 48.0901 60.3634C48.2904 60.1628 48.2904 59.7618 48.2904 59.1601V53.4448C48.2904 52.9434 48.1902 52.6426 48.0901 52.4421C47.9899 52.2415 47.6894 52.1413 47.2888 52.1413V51.8405H50.4938V52.1413C50.0932 52.1413 49.8928 52.2415 49.6925 52.4421C49.4922 52.6426 49.4922 53.0437 49.4922 53.545V59.5612C49.4922 59.862 49.5924 60.1628 49.6925 60.2631C49.7927 60.3634 50.0932 60.4636 50.4938 60.4636H52.2966C52.8975 60.4636 53.1979 60.3634 53.4984 60.1628C53.7989 59.9623 53.899 59.5612 54.0993 58.9596Z" fill="#828282"/>
<path d="M62.0114 58.9596H62.3119L61.711 60.965H55.2009V60.6642C55.6015 60.6642 55.8019 60.5639 56.0022 60.3634C56.2025 60.1628 56.2025 59.7618 56.2025 59.1601V53.4448C56.2025 52.9434 56.1023 52.6426 56.0022 52.4421C55.8019 52.2415 55.6015 52.1413 55.2009 52.1413V51.8405H58.4059V52.1413C58.0053 52.1413 57.8049 52.2415 57.6046 52.4421C57.4043 52.6426 57.4043 53.0437 57.4043 53.545V59.5612C57.4043 59.862 57.5045 60.1628 57.6046 60.2631C57.7048 60.3634 58.0053 60.4636 58.4059 60.4636H60.2087C60.8096 60.4636 61.1101 60.3634 61.4105 60.1628C61.711 59.9623 61.8111 59.5612 62.0114 58.9596Z" fill="#828282"/>
<path d="M70.4245 58.7591H70.725L70.4245 60.965H62.8127V60.7645L68.7219 52.4421H64.8158C64.2149 52.4421 63.8143 52.5424 63.614 52.6426C63.4137 52.7429 63.2134 53.0437 63.0131 53.5451H62.8127L62.9129 52.041H70.2242V52.1413L64.3151 60.4637H67.8205C68.5216 60.4637 69.1225 60.3634 69.5231 60.0626C69.9237 59.7618 70.2242 59.3607 70.4245 58.7591Z" fill="#828282"/>
<path d="M78.2365 53.144L76.2335 56.3526V59.1602C76.2335 59.6615 76.3336 60.0626 76.4338 60.2632C76.5339 60.4637 76.8344 60.564 77.235 60.564V60.8648H73.8297V60.564C74.2304 60.564 74.5308 60.4637 74.7311 60.2632C74.9314 60.0626 74.9314 59.6615 74.9314 59.1602V56.3526L73.0285 53.3446C72.728 52.8432 72.4276 52.5424 72.2273 52.3419C72.1271 52.2416 71.8266 52.1413 71.426 52.1413V51.8405H74.9314V52.1413C74.3305 52.1413 74.03 52.2416 74.03 52.5424C74.03 52.6427 74.1302 52.8432 74.2304 53.0437L76.0331 55.751L77.4353 53.4448C77.6356 53.144 77.7358 52.8432 77.7358 52.5424C77.7358 52.2416 77.5355 52.041 77.1348 52.041V51.7402H79.6387V52.1413C79.3383 52.1413 79.0378 52.2416 78.8375 52.3419C78.6372 52.4421 78.4369 52.7429 78.2365 53.144Z" fill="#828282"/>
</g>
<defs>
<clipPath id="clip0_350_920">
<rect width="80" height="62" fill="white" transform="translate(0.716797)"/>
</clipPath>
</defs>
</svg>
