<svg style="display:none;">
    <symbol id="triangle" width="10" height="5" viewBox="0 0 10 5" fill="none" xmlns="http://www.w3.org/2000/svg">
        <path d="M4.70996 4.76038L0.385754 0.619812L9.03417 0.619812L4.70996 4.76038Z" fill="#828282"/>
    </symbol>

    <symbol id="arrow" width="8" height="14" viewBox="0 0 8 14" xmlns="http://www.w3.org/2000/svg">
        <path d="M7.74528 1.57499L6.68428 0.514986L0.905278 6.29199C0.812124 6.38455 0.738195 6.49463 0.687747 6.61588C0.637299 6.73713 0.611328 6.86716 0.611328 6.99849C0.611328 7.12981 0.637299 7.25984 0.687747 7.38109C0.738195 7.50234 0.812124 7.61242 0.905278 7.70499L6.68428 13.485L7.74428 12.425L2.32028 6.99999L7.74528 1.57499Z"/>
    </symbol>

    <symbol id="arrowVertical" width="25" height="14" viewBox="0 0 25 14" fill="none" xmlns="http://www.w3.org/2000/svg">
        <path d="M2.33205 13.8571L0.370606 11.8938L11.0605 1.20018C11.2318 1.02781 11.4355 0.891008 11.6598 0.797658C11.8842 0.704308 12.1248 0.65625 12.3678 0.65625C12.6108 0.65625 12.8514 0.704308 13.0758 0.797658C13.3002 0.891008 13.5039 1.02781 13.6752 1.20018L24.3706 11.8938L22.4092 13.8552L12.3706 3.81853L2.33205 13.8571Z" fill="white"/>
    </symbol>



    <symbol id="burger" width="42" height="43" viewBox="0 0 42 43" fill="none" xmlns="http://www.w3.org/2000/svg">
        <path d="M15.75 10.75H35.4375M6.5625 21.5H35.4375M6.5625 32.25H35.4375M6.5625 14.7812L10.5 10.75L6.5625 6.71875" stroke="white" stroke-linecap="round" stroke-linejoin="round"/>
    </symbol>


    <symbol id="facebook" viewBox="0 0 32 32" fill="none" xmlns="http://www.w3.org/2000/svg">
        <path d="M32 16.0401C32 7.18596 24.832 0 16 0C7.168 0 0 7.18596 0 16.0401C0 23.8035 5.504 30.2677 12.8 31.7594V20.8521H9.6V16.0401H12.8V12.0301C12.8 8.93434 15.312 6.41604 18.4 6.41604H22.4V11.2281H19.2C18.32 11.2281 17.6 11.9499 17.6 12.8321V16.0401H22.4V20.8521H17.6V32C25.68 31.198 32 24.3649 32 16.0401Z" fill="white"/>
    </symbol>

    <symbol id="instagram" viewBox="0 0 32 32" fill="none" xmlns="http://www.w3.org/2000/svg">
        <path d="M18.5755 16.389C18.5659 16.8959 18.4059 17.3885 18.116 17.8043C17.8261 18.2202 17.4192 18.5406 16.947 18.7249C16.4748 18.9093 15.9584 18.9493 15.4634 18.8399C14.9684 18.7304 14.5171 18.4765 14.1666 18.1103C13.8161 17.744 13.5822 17.282 13.4946 16.7826C13.407 16.2833 13.4696 15.7692 13.6745 15.3056C13.8794 14.8419 14.2173 14.4495 14.6455 14.1781C15.0737 13.9066 15.5728 13.7685 16.0796 13.7811C16.753 13.806 17.3902 14.0922 17.8562 14.5791C18.3221 15.066 18.5801 15.7151 18.5755 16.389Z" fill="white"/>
        <path d="M20.4212 8.37292H11.7413C10.8824 8.37292 10.0587 8.71411 9.45142 9.32142C8.84411 9.92873 8.50293 10.7524 8.50293 11.6113V20.4864C8.50293 20.9116 8.58669 21.3327 8.74943 21.7256C8.91218 22.1185 9.15071 22.4755 9.45142 22.7762C9.75213 23.0769 10.1091 23.3155 10.502 23.4782C10.8949 23.641 11.316 23.7247 11.7413 23.7247H20.4212C20.8464 23.7247 21.2676 23.641 21.6604 23.4782C22.0533 23.3155 22.4103 23.0769 22.711 22.7762C23.0118 22.4755 23.2503 22.1185 23.413 21.7256C23.5758 21.3327 23.6595 20.9116 23.6595 20.4864V11.6273C23.6612 11.2008 23.5787 10.7782 23.4168 10.3836C23.2548 9.98905 23.0166 9.63033 22.7158 9.32801C22.4149 9.02569 22.0574 8.7857 21.6637 8.62181C21.2699 8.45792 20.8477 8.37334 20.4212 8.37292ZM16.0804 20.7296C15.2212 20.749 14.3757 20.5119 13.6517 20.0486C12.9278 19.5854 12.3583 18.9169 12.016 18.1286C11.6736 17.3402 11.5739 16.4678 11.7296 15.6225C11.8853 14.7773 12.2893 13.9976 12.8901 13.383C13.4908 12.7683 14.2611 12.3466 15.1026 12.1717C15.944 11.9968 16.8186 12.0765 17.6145 12.4008C18.4105 12.7251 19.0917 13.2791 19.5714 13.9923C20.0511 14.7055 20.3074 15.5454 20.3076 16.4048C20.3146 16.9665 20.2107 17.524 20.0019 18.0455C19.7932 18.567 19.4836 19.0422 19.091 19.4439C18.6983 19.8456 18.2303 20.1659 17.7137 20.3865C17.1971 20.6072 16.6421 20.7237 16.0804 20.7296ZM20.778 12.0817C20.6724 12.0817 20.5679 12.0607 20.4705 12.0198C20.3732 11.9789 20.285 11.919 20.2111 11.8436C20.1372 11.7682 20.0791 11.6788 20.0401 11.5807C20.0012 11.4826 19.9823 11.3776 19.9844 11.2721C19.9844 11.0574 20.0697 10.8515 20.2215 10.6996C20.3733 10.5478 20.5793 10.4625 20.794 10.4625C21.0087 10.4625 21.2146 10.5478 21.3664 10.6996C21.5183 10.8515 21.6036 11.0574 21.6036 11.2721C21.6067 11.3864 21.5852 11.5 21.5404 11.6052C21.4956 11.7104 21.4285 11.8047 21.3439 11.8816C21.2593 11.9584 21.159 12.0161 21.05 12.0507C20.941 12.0852 20.8258 12.0958 20.7124 12.0817H20.778Z" fill="white"/>
        <path d="M16.08 0.000200276C11.8366 -0.0210168 7.75855 1.64432 4.743 4.62987C1.72745 7.61541 0.0214173 11.6766 0.000200276 15.92C-0.0210168 20.1634 1.64432 24.2415 4.62987 27.257C7.61541 30.2725 11.6766 31.9786 15.92 31.9998C18.0211 32.0103 20.1037 31.6069 22.0489 30.8125C23.9942 30.0181 25.7639 28.8484 27.257 27.3701C28.7501 25.8918 29.9375 24.1339 30.7513 22.1968C31.565 20.2596 31.9893 18.1811 31.9998 16.08C32.0103 13.9789 31.6069 11.8963 30.8125 9.95105C30.0181 8.00585 28.8484 6.23615 27.3701 4.743C25.8918 3.24985 24.1339 2.0625 22.1968 1.24873C20.2596 0.434956 18.1811 0.0107059 16.08 0.000200276ZM25.7967 20.3231C25.8011 21.0409 25.6631 21.7525 25.3905 22.4165C25.1179 23.0806 24.7162 23.6839 24.2087 24.1916C23.7012 24.6992 23.098 25.1011 22.434 25.3739C21.7701 25.6467 21.0586 25.7849 20.3407 25.7807H11.8225C11.1046 25.7851 10.3931 25.6471 9.72905 25.3745C9.06501 25.1019 8.46167 24.7002 7.95402 24.1927C7.44637 23.6852 7.04451 23.082 6.77173 22.418C6.49895 21.7541 6.36067 21.0426 6.36492 20.3247V11.8049C6.36046 11.087 6.49853 10.3755 6.77111 9.71145C7.0437 9.0474 7.44539 8.44407 7.95289 7.93642C8.46039 7.42877 9.0636 7.02691 9.72757 6.75413C10.3915 6.48135 11.103 6.34307 11.8209 6.34732H20.3407C21.0584 6.34307 21.7698 6.4813 22.4337 6.75398C23.0975 7.02666 23.7007 7.42838 24.2081 7.93586C24.7156 8.44334 25.1173 9.04648 25.39 9.71034C25.6627 10.3742 25.8009 11.0856 25.7967 11.8033V20.3231Z" fill="white"/>
    </symbol>

    <symbol id="tiktok" viewBox="0 0 32 32" fill="none" xmlns="http://www.w3.org/2000/svg">
        <path d="M16 0C12.8355 0 9.74207 0.938383 7.11088 2.69649C4.4797 4.45459 2.42894 6.95344 1.21793 9.87706C0.00693254 12.8007 -0.309921 16.0177 0.307443 19.1214C0.924806 22.2251 2.44866 25.0761 4.6863 27.3137C6.92394 29.5513 9.77486 31.0752 12.8786 31.6926C15.9823 32.3099 19.1993 31.9931 22.1229 30.7821C25.0466 29.5711 27.5454 27.5203 29.3035 24.8891C31.0616 22.2579 32 19.1645 32 16C31.9958 11.7578 30.3087 7.69063 27.309 4.69097C24.3094 1.69131 20.2422 0.00423581 16 0ZM25.5024 12.3408V13.3744C25.5024 13.4535 25.4866 13.5318 25.4559 13.6047C25.4251 13.6776 25.3801 13.7436 25.3234 13.7988C25.2667 13.8539 25.1995 13.8972 25.1259 13.926C25.0522 13.9548 24.9735 13.9685 24.8944 13.9664C23.2051 13.847 21.5889 13.2302 20.2496 12.1936V19.7584C20.2492 20.5956 20.0821 21.4244 19.7579 22.1963C19.4338 22.9683 18.9591 23.6679 18.3616 24.2544C17.7592 24.8562 17.0428 25.3318 16.2543 25.6532C15.4658 25.9747 14.6211 26.1355 13.7696 26.1264C12.0574 26.1239 10.414 25.4521 9.1904 24.2544C8.41183 23.4694 7.85103 22.4953 7.5632 21.4278C7.27536 20.3604 7.2704 19.2364 7.5488 18.1664C7.8032 17.1392 8.3168 16.1952 9.0416 15.4256C9.58213 14.7649 10.2635 14.2334 11.0358 13.87C11.8082 13.5065 12.652 13.3202 13.5056 13.3248H14.8176V16.0496C14.8182 16.1287 14.8019 16.2071 14.7698 16.2794C14.7377 16.3518 14.6906 16.4164 14.6315 16.4691C14.5725 16.5218 14.5029 16.5613 14.4274 16.585C14.3519 16.6086 14.2722 16.6159 14.1936 16.6064C13.4318 16.3776 12.611 16.4535 11.9041 16.8181C11.1972 17.1827 10.6594 17.8075 10.4042 18.5609C10.149 19.3142 10.1963 20.1372 10.5361 20.8564C10.8759 21.5756 11.4816 22.1347 12.2256 22.416C12.6576 22.664 13.1408 22.8096 13.6368 22.8432C14.0208 22.8592 14.4048 22.8112 14.7696 22.696C15.3786 22.4905 15.9083 22.1002 16.2849 21.5793C16.6615 21.0585 16.8662 20.4331 16.8704 19.7904V6.0064C16.8704 5.85391 16.9309 5.70764 17.0385 5.59967C17.1462 5.49169 17.2923 5.43082 17.4448 5.4304H19.7088C19.8559 5.43058 19.9974 5.48704 20.1042 5.58819C20.211 5.68934 20.275 5.82752 20.2832 5.9744C20.3657 6.68036 20.5899 7.3624 20.9424 7.97962C21.2949 8.59685 21.7683 9.13656 22.3344 9.5664C23.0994 10.1406 24.0079 10.4927 24.96 10.584C25.1026 10.5962 25.236 10.6596 25.3354 10.7626C25.4348 10.8656 25.4936 11.001 25.5008 11.144L25.5024 12.3408Z" fill="white"/>
    </symbol>

    <symbol id="telegram" viewBox="0 0 32 32" fill="none" xmlns="http://www.w3.org/2000/svg">
        <path fill-rule="evenodd" clip-rule="evenodd" d="M32 16C32 24.8365 24.8365 32 16 32C7.16346 32 0 24.8365 0 16C0 7.16346 7.16346 0 16 0C24.8365 0 32 7.16346 32 16ZM17.5332 11.0905C14.7845 12.2778 6.85893 15.6496 6.85893 15.6496C4.98063 16.4094 6.08007 17.1218 6.08007 17.1218C6.08007 17.1218 7.68351 17.6917 9.05794 18.1191C10.4323 18.5465 11.1653 18.0716 11.1653 18.0716C11.1653 18.0716 14.3722 15.887 17.6249 13.56C19.9155 11.9453 19.3658 13.275 18.816 13.845C17.6249 15.0797 15.6549 17.0268 14.0057 18.594C13.2727 19.2589 13.6392 19.8288 13.9599 20.1137C14.8926 20.9318 17.0893 22.4197 18.0866 23.0952C18.3629 23.2823 18.5472 23.4071 18.587 23.438C18.816 23.6281 20.0988 24.4828 20.8776 24.2929C21.6564 24.1029 21.748 23.0106 21.748 23.0106C21.748 23.0106 22.3436 19.1164 22.8933 15.5546C22.9952 14.8553 23.097 14.1706 23.1919 13.5322C23.4387 11.8728 23.639 10.5258 23.6722 10.0457C23.8096 8.431 22.1603 9.09583 22.1603 9.09583C22.1603 9.09583 18.587 10.6156 17.5332 11.0905Z" fill="white"/>
    </symbol>

    <symbol id="whatsapp" fill="#ffffff" viewBox="0 0 32 32" version="1.1" xmlns="http://www.w3.org/2000/svg">
        <g id="SVGRepo_bgCarrier" stroke-width="0"/>
        <g id="SVGRepo_tracerCarrier" stroke-linecap="round" stroke-linejoin="round"/>
        <g id="SVGRepo_iconCarrier"> <title>whatsapp</title> <path d="M26.576 5.363c-2.69-2.69-6.406-4.354-10.511-4.354-8.209 0-14.865 6.655-14.865 14.865 0 2.732 0.737 5.291 2.022 7.491l-0.038-0.070-2.109 7.702 7.879-2.067c2.051 1.139 4.498 1.809 7.102 1.809h0.006c8.209-0.003 14.862-6.659 14.862-14.868 0-4.103-1.662-7.817-4.349-10.507l0 0zM16.062 28.228h-0.005c-0 0-0.001 0-0.001 0-2.319 0-4.489-0.64-6.342-1.753l0.056 0.031-0.451-0.267-4.675 1.227 1.247-4.559-0.294-0.467c-1.185-1.862-1.889-4.131-1.889-6.565 0-6.822 5.531-12.353 12.353-12.353s12.353 5.531 12.353 12.353c0 6.822-5.53 12.353-12.353 12.353h-0zM22.838 18.977c-0.371-0.186-2.197-1.083-2.537-1.208-0.341-0.124-0.589-0.185-0.837 0.187-0.246 0.371-0.958 1.207-1.175 1.455-0.216 0.249-0.434 0.279-0.805 0.094-1.15-0.466-2.138-1.087-2.997-1.852l0.010 0.009c-0.799-0.74-1.484-1.587-2.037-2.521l-0.028-0.052c-0.216-0.371-0.023-0.572 0.162-0.757 0.167-0.166 0.372-0.434 0.557-0.65 0.146-0.179 0.271-0.384 0.366-0.604l0.006-0.017c0.043-0.087 0.068-0.188 0.068-0.296 0-0.131-0.037-0.253-0.101-0.357l0.002 0.003c-0.094-0.186-0.836-2.014-1.145-2.758-0.302-0.724-0.609-0.625-0.836-0.637-0.216-0.010-0.464-0.012-0.712-0.012-0.395 0.010-0.746 0.188-0.988 0.463l-0.001 0.002c-0.802 0.761-1.3 1.834-1.3 3.023 0 0.026 0 0.053 0.001 0.079l-0-0.004c0.131 1.467 0.681 2.784 1.527 3.857l-0.012-0.015c1.604 2.379 3.742 4.282 6.251 5.564l0.094 0.043c0.548 0.248 1.25 0.513 1.968 0.74l0.149 0.041c0.442 0.14 0.951 0.221 1.479 0.221 0.303 0 0.601-0.027 0.889-0.078l-0.031 0.004c1.069-0.223 1.956-0.868 2.497-1.749l0.009-0.017c0.165-0.366 0.261-0.793 0.261-1.242 0-0.185-0.016-0.366-0.047-0.542l0.003 0.019c-0.092-0.155-0.34-0.247-0.712-0.434z"/> </g>
    </symbol>

    <symbol id="vk" viewBox="0 0 32 32" fill="none" xmlns="http://www.w3.org/2000/svg">
        <path d="M16 0C7.17774 0 0 7.17774 0 16C0 24.8223 7.17774 32 16 32C24.823 32 32 24.8223 32 16C32 7.17774 24.823 0 16 0ZM22.9377 19.1548C24.4939 20.5363 24.8174 21.0296 24.8703 21.1137C25.5151 22.1363 24.1551 22.2609 24.1551 22.2609H21.289C21.289 22.2609 20.5913 22.2685 19.9951 21.8734C19.0233 21.2369 18.0056 20.0028 17.2904 20.217C16.6901 20.3965 16.6957 21.2077 16.6957 21.9012C16.6957 22.1496 16.4821 22.2609 16 22.2609C15.5179 22.2609 15.3176 22.2609 15.104 22.2609C13.5339 22.2609 11.8303 21.7322 10.1308 19.9562C7.72661 17.4456 5.61809 12.3882 5.61809 12.3882C5.61809 12.3882 5.49357 12.1336 5.62922 11.9784C5.78296 11.8045 6.20104 11.8268 6.20104 11.8268L8.98017 11.8261C8.98017 11.8261 9.24174 11.8755 9.42957 12.0077C9.5847 12.1162 9.67096 12.3235 9.67096 12.3235C9.67096 12.3235 10.1377 13.865 10.7325 14.848C11.8943 16.7666 12.4348 16.8153 12.8292 16.6087C13.4052 16.3096 13.2174 14.2699 13.2174 14.2699C13.2174 14.2699 13.2431 13.3941 12.9426 13.0038C12.711 12.7019 12.2678 12.5412 12.0744 12.5162C11.9179 12.496 12.1795 12.2219 12.5127 12.0654C12.9579 11.8671 13.5638 11.8163 14.6087 11.8261C15.4219 11.8337 15.6563 11.8824 15.9736 11.9555C16.9329 12.1767 16.6957 12.7603 16.6957 14.8097C16.6957 15.4664 16.6052 16.3896 17.1005 16.6957C17.3141 16.8278 18.0459 16.9892 19.3482 14.8744C19.9666 13.8713 20.4584 12.2073 20.4584 12.2073C20.4584 12.2073 20.56 12.0243 20.7179 11.9339C20.8793 11.8414 20.8744 11.8435 21.0957 11.8435C21.3169 11.8435 23.5353 11.8261 24.0223 11.8261C24.5085 11.8261 24.9649 11.8205 25.0435 12.1057C25.1562 12.5155 24.6845 13.9193 23.4894 15.4428C21.5256 17.943 21.3078 17.7092 22.9377 19.1548Z" fill="white"/>
    </symbol>


    <symbol id="search" width="21" height="20" viewBox="0 0 21 20" fill="none" xmlns="http://www.w3.org/2000/svg">
        <path d="M19.3312 19L14.9912 14.66" stroke="white" stroke-width="2" stroke-linecap="round" stroke-linejoin="round"/>
        <path d="M9.33105 17C13.7493 17 17.3311 13.4183 17.3311 9C17.3311 4.58172 13.7493 1 9.33105 1C4.91278 1 1.33105 4.58172 1.33105 9C1.33105 13.4183 4.91278 17 9.33105 17Z" stroke="white" stroke-width="2" stroke-linecap="round" stroke-linejoin="round"/>
    </symbol>

    <symbol id="pin" width="30" height="38" viewBox="0 0 30 38" xmlns="http://www.w3.org/2000/svg">
        <path d="M14.9789 0.331299C6.82981 0.331299 0.223633 6.93748 0.223633 15.0865C0.223633 18.7246 1.54629 22.0493 3.72902 24.6221L14.9789 37.8711L26.2283 24.6217C28.4111 22.0493 29.7337 18.7242 29.7337 15.0861C29.7341 6.93748 23.1279 0.331299 14.9789 0.331299ZM14.9789 20.6466C11.6274 20.6466 8.91077 17.93 8.91077 14.5785C8.91077 11.227 11.6274 8.5104 14.9789 8.5104C18.3304 8.5104 21.047 11.227 21.047 14.5785C21.047 17.93 18.3304 20.6466 14.9789 20.6466Z"/>
    </symbol>


    <symbol id="youtube" width="210" height="150" viewBox="0 0 210 150" fill="none" xmlns="http://www.w3.org/2000/svg">
        <g filter="url(#filter0_f_350_915)">
        <mask id="path-1-inside-1_350_915" fill="white">
        <path fill-rule="evenodd" clip-rule="evenodd" d="M183.364 8.72003C192.029 11.0602 198.84 17.8884 201.142 26.5439C205.331 42.2521 205.331 75.0468 205.331 75.0468C205.331 75.0468 205.331 107.842 201.142 123.55C198.808 132.237 191.997 139.065 183.364 141.374C167.696 145.573 104.831 145.573 104.831 145.573C104.831 145.573 41.9986 145.573 26.2984 141.374C17.633 139.033 10.8221 132.205 8.51989 123.55C4.33105 107.842 4.33105 75.0468 4.33105 75.0468C4.33105 75.0468 4.33105 42.2521 8.51989 26.5439C10.8541 17.8564 17.665 11.0282 26.2984 8.72003C41.9986 4.52051 104.831 4.52051 104.831 4.52051C104.831 4.52051 167.696 4.52051 183.364 8.72003ZM136.967 75.0468L84.7503 105.277V44.8167L136.967 75.0468Z"/>
        </mask>
        <path d="M201.142 26.5439L200.176 26.801L200.176 26.8016L201.142 26.5439ZM183.364 8.72003L183.624 7.75462L183.623 7.75413L183.364 8.72003ZM205.331 75.0468H204.331H205.331ZM201.142 123.55L202.108 123.809L202.108 123.807L201.142 123.55ZM183.364 141.374L183.105 140.408L183.105 140.408L183.364 141.374ZM26.2984 141.374L26.0377 142.339L26.04 142.34L26.2984 141.374ZM8.51989 123.55L9.48628 123.293L9.48612 123.292L8.51989 123.55ZM8.51989 26.5439L7.55414 26.2845L7.55365 26.2863L8.51989 26.5439ZM26.2984 8.72003L26.5567 9.6861L26.5568 9.68607L26.2984 8.72003ZM84.7503 105.277H83.7503V107.011L85.2513 106.142L84.7503 105.277ZM136.967 75.0468L137.468 75.9123L138.963 75.0468L137.468 74.1814L136.967 75.0468ZM84.7503 44.8167L85.2513 43.9513L83.7503 43.0823V44.8167H84.7503ZM201.142 26.5439L202.109 26.2869C199.714 17.2853 192.634 10.1877 183.624 7.75462L183.364 8.72003L183.103 9.68545C191.424 11.9328 197.966 18.4916 200.176 26.801L201.142 26.5439ZM205.331 75.0468C206.331 75.0468 206.331 75.0466 206.331 75.0463C206.331 75.0461 206.331 75.0456 206.331 75.0451C206.331 75.044 206.331 75.0424 206.331 75.0403C206.331 75.0362 206.331 75.0301 206.331 75.022C206.331 75.0058 206.331 74.9818 206.331 74.9502C206.331 74.887 206.331 74.7932 206.33 74.6705C206.329 74.425 206.327 74.0635 206.323 73.5982C206.315 72.6675 206.298 71.3215 206.265 69.6575C206.2 66.33 206.069 61.7288 205.806 56.6345C205.283 46.4758 204.233 34.2536 202.108 26.2863L201.142 26.5439L200.176 26.8016C202.24 34.5425 203.285 46.5717 203.809 56.7374C204.07 61.8053 204.201 66.3846 204.266 69.6969C204.298 71.3529 204.315 72.6916 204.323 73.6158C204.327 74.0779 204.329 74.4363 204.33 74.6789C204.331 74.8002 204.331 74.8925 204.331 74.9543C204.331 74.9852 204.331 75.0085 204.331 75.024C204.331 75.0317 204.331 75.0375 204.331 75.0413C204.331 75.0432 204.331 75.0447 204.331 75.0456C204.331 75.046 204.331 75.0463 204.331 75.0466C204.331 75.0468 204.331 75.0468 205.331 75.0468ZM201.142 123.55L202.108 123.807C204.233 115.84 205.283 103.618 205.806 93.4592C206.069 88.3649 206.2 83.7637 206.265 80.4361C206.298 78.7722 206.315 77.4261 206.323 76.4955C206.327 76.0301 206.329 75.6686 206.33 75.4231C206.331 75.3004 206.331 75.2066 206.331 75.1434C206.331 75.1118 206.331 75.0878 206.331 75.0717C206.331 75.0636 206.331 75.0574 206.331 75.0533C206.331 75.0512 206.331 75.0497 206.331 75.0486C206.331 75.048 206.331 75.0476 206.331 75.0473C206.331 75.047 206.331 75.0468 205.331 75.0468C204.331 75.0468 204.331 75.0469 204.331 75.0471C204.331 75.0473 204.331 75.0476 204.331 75.0481C204.331 75.049 204.331 75.0504 204.331 75.0523C204.331 75.0561 204.331 75.0619 204.331 75.0696C204.331 75.0851 204.331 75.1084 204.331 75.1393C204.331 75.2012 204.331 75.2935 204.33 75.4148C204.329 75.6573 204.327 76.0157 204.323 76.4778C204.315 77.402 204.298 78.7408 204.266 80.3967C204.201 83.7091 204.07 88.2883 203.809 93.3563C203.285 103.522 202.24 115.551 200.176 123.292L201.142 123.55ZM183.364 141.374L183.622 142.34C192.603 139.939 199.682 132.839 202.108 123.809L201.142 123.55L200.177 123.29C197.934 131.636 191.391 138.192 183.105 140.408L183.364 141.374ZM104.831 145.573C104.831 146.573 104.831 146.573 104.832 146.573C104.832 146.573 104.833 146.573 104.834 146.573C104.836 146.573 104.839 146.573 104.843 146.573C104.85 146.573 104.862 146.573 104.877 146.573C104.908 146.573 104.953 146.573 105.013 146.573C105.133 146.573 105.311 146.573 105.543 146.572C106.008 146.571 106.692 146.569 107.568 146.565C109.319 146.557 111.838 146.54 114.909 146.507C121.052 146.442 129.406 146.31 138.251 146.048C147.095 145.785 156.438 145.391 164.556 144.799C172.645 144.209 179.602 143.417 183.623 142.34L183.364 141.374L183.105 140.408C179.292 141.43 172.515 142.213 164.41 142.804C156.334 143.393 147.023 143.786 138.192 144.049C129.363 144.311 121.022 144.442 114.888 144.508C111.821 144.54 109.306 144.557 107.558 144.565C106.684 144.569 106.002 144.571 105.539 144.572C105.307 144.573 105.13 144.573 105.011 144.573C104.951 144.573 104.906 144.573 104.876 144.573C104.861 144.573 104.85 144.573 104.842 144.573C104.838 144.573 104.836 144.573 104.834 144.573C104.833 144.573 104.832 144.573 104.832 144.573C104.831 144.573 104.831 144.573 104.831 145.573ZM26.2984 141.374L26.04 142.34C30.0688 143.417 37.0292 144.209 45.1199 144.799C53.2387 145.391 62.5807 145.785 71.4226 146.048C80.2662 146.31 88.6175 146.442 94.7575 146.507C97.8277 146.54 100.345 146.557 102.096 146.565C102.971 146.569 103.655 146.571 104.119 146.572C104.352 146.573 104.53 146.573 104.649 146.573C104.709 146.573 104.754 146.573 104.785 146.573C104.8 146.573 104.812 146.573 104.819 146.573C104.823 146.573 104.826 146.573 104.828 146.573C104.829 146.573 104.83 146.573 104.83 146.573C104.831 146.573 104.831 146.573 104.831 145.573C104.831 144.573 104.831 144.573 104.83 144.573C104.83 144.573 104.829 144.573 104.828 144.573C104.826 144.573 104.824 144.573 104.82 144.573C104.812 144.573 104.801 144.573 104.786 144.573C104.756 144.573 104.711 144.573 104.651 144.573C104.532 144.573 104.355 144.573 104.124 144.572C103.661 144.571 102.979 144.569 102.105 144.565C100.358 144.557 97.8445 144.54 94.7789 144.508C88.6471 144.442 80.3091 144.311 71.482 144.049C62.6533 143.786 53.3434 143.393 45.2654 142.804C37.1594 142.213 30.3782 141.43 26.5568 140.408L26.2984 141.374ZM8.51989 123.55L7.55349 123.807C9.94782 132.808 17.0283 139.906 26.0377 142.339L26.2984 141.374L26.5592 140.408C18.2376 138.161 11.6965 131.602 9.48628 123.293L8.51989 123.55ZM4.33105 75.0468C3.33105 75.0468 3.33105 75.047 3.33105 75.0473C3.33105 75.0476 3.33105 75.048 3.33105 75.0486C3.33106 75.0497 3.33106 75.0512 3.33106 75.0533C3.33106 75.0574 3.33106 75.0636 3.33107 75.0717C3.33109 75.0878 3.33112 75.1118 3.33118 75.1434C3.33131 75.2066 3.33157 75.3004 3.33209 75.4231C3.33311 75.6686 3.33517 76.0301 3.33927 76.4955C3.34748 77.4261 3.36389 78.7722 3.3967 80.4361C3.4623 83.7637 3.5935 88.3649 3.85598 93.4592C4.37941 103.618 5.42905 115.84 7.55365 123.807L8.51989 123.55L9.48612 123.292C7.42189 115.551 6.37712 103.522 5.85333 93.3563C5.59221 88.2883 5.46161 83.7091 5.39631 80.3967C5.36366 78.7408 5.34735 77.402 5.3392 76.4778C5.33512 76.0157 5.33309 75.6573 5.33207 75.4148C5.33156 75.2935 5.33131 75.2012 5.33118 75.1393C5.33112 75.1084 5.33109 75.0851 5.33107 75.0696C5.33106 75.0619 5.33106 75.0561 5.33106 75.0523C5.33106 75.0504 5.33106 75.049 5.33105 75.0481C5.33105 75.0476 5.33105 75.0473 5.33105 75.0471C5.33105 75.0469 5.33105 75.0468 4.33105 75.0468ZM8.51989 26.5439L7.55365 26.2863C5.42905 34.2536 4.37941 46.4758 3.85598 56.6345C3.5935 61.7288 3.4623 66.33 3.3967 69.6575C3.36389 71.3215 3.34748 72.6675 3.33927 73.5982C3.33517 74.0635 3.33311 74.425 3.33209 74.6705C3.33157 74.7932 3.33131 74.887 3.33118 74.9502C3.33112 74.9818 3.33109 75.0058 3.33107 75.022C3.33106 75.0301 3.33106 75.0362 3.33106 75.0403C3.33106 75.0424 3.33106 75.044 3.33105 75.0451C3.33105 75.0456 3.33105 75.0461 3.33105 75.0463C3.33105 75.0466 3.33105 75.0468 4.33105 75.0468C5.33105 75.0468 5.33105 75.0468 5.33105 75.0466C5.33105 75.0463 5.33105 75.046 5.33105 75.0456C5.33106 75.0447 5.33106 75.0433 5.33106 75.0413C5.33106 75.0375 5.33106 75.0317 5.33107 75.024C5.33109 75.0085 5.33112 74.9852 5.33118 74.9543C5.33131 74.8925 5.33156 74.8002 5.33207 74.6789C5.33309 74.4363 5.33512 74.0779 5.3392 73.6158C5.34735 72.6916 5.36366 71.3529 5.39631 69.6969C5.46161 66.3846 5.59221 61.8053 5.85333 56.7374C6.37712 46.5717 7.42189 34.5425 9.48612 26.8016L8.51989 26.5439ZM26.2984 8.72003L26.0402 7.75396C17.0588 10.1551 9.98031 17.2548 7.55414 26.2845L8.51989 26.5439L9.48563 26.8034C11.7279 18.458 18.2712 11.9012 26.5567 9.6861L26.2984 8.72003ZM104.831 4.52051C104.831 3.52051 104.831 3.52051 104.83 3.52051C104.83 3.52051 104.829 3.52051 104.828 3.52051C104.826 3.52051 104.823 3.52051 104.819 3.52051C104.812 3.52051 104.8 3.52052 104.785 3.52052C104.754 3.52054 104.709 3.52057 104.649 3.52064C104.53 3.52077 104.352 3.52102 104.119 3.52154C103.655 3.52256 102.971 3.52462 102.096 3.52872C100.345 3.53693 97.8277 3.55335 94.7575 3.58618C88.6175 3.65184 80.2662 3.78317 71.4226 4.04589C62.5807 4.30856 53.2387 4.70279 45.1199 5.29483C37.0292 5.88484 30.0688 6.67638 26.04 7.754L26.2984 8.72003L26.5568 9.68607C30.3782 8.66393 37.1594 7.88065 45.2654 7.28953C53.3434 6.70046 62.6533 6.30728 71.482 6.04501C80.3091 5.78278 88.6471 5.65164 94.7789 5.58607C97.8445 5.55328 100.358 5.53689 102.105 5.5287C102.979 5.5246 103.661 5.52255 104.124 5.52153C104.355 5.52102 104.532 5.52076 104.651 5.52064C104.711 5.52057 104.756 5.52054 104.786 5.52052C104.801 5.52052 104.812 5.52051 104.82 5.52051C104.824 5.52051 104.826 5.52051 104.828 5.52051C104.829 5.52051 104.83 5.52051 104.83 5.52051C104.831 5.52051 104.831 5.52051 104.831 4.52051ZM183.364 8.72003L183.623 7.75413C179.602 6.67637 172.645 5.88483 164.556 5.29483C156.438 4.70279 147.095 4.30856 138.251 4.04589C129.406 3.78317 121.052 3.65184 114.909 3.58618C111.838 3.55335 109.319 3.53693 107.568 3.52872C106.692 3.52462 106.008 3.52256 105.543 3.52154C105.311 3.52102 105.133 3.52077 105.013 3.52064C104.953 3.52057 104.908 3.52054 104.877 3.52052C104.862 3.52052 104.85 3.52051 104.843 3.52051C104.839 3.52051 104.836 3.52051 104.834 3.52051C104.833 3.52051 104.832 3.52051 104.832 3.52051C104.831 3.52051 104.831 3.52051 104.831 4.52051C104.831 5.52051 104.831 5.52051 104.832 5.52051C104.832 5.52051 104.833 5.52051 104.834 5.52051C104.836 5.52051 104.838 5.52051 104.842 5.52051C104.85 5.52051 104.861 5.52052 104.876 5.52052C104.906 5.52054 104.951 5.52057 105.011 5.52064C105.13 5.52076 105.307 5.52102 105.539 5.52153C106.002 5.52255 106.684 5.5246 107.558 5.5287C109.306 5.53689 111.821 5.55328 114.888 5.58607C121.022 5.65164 129.363 5.78278 138.192 6.04501C147.023 6.30728 156.334 6.70046 164.41 7.28953C172.515 7.88066 179.292 8.66393 183.105 9.68594L183.364 8.72003ZM84.7503 105.277L85.2513 106.142L137.468 75.9123L136.967 75.0468L136.466 74.1814L84.2492 104.412L84.7503 105.277ZM84.7503 44.8167H83.7503V105.277H84.7503H85.7503V44.8167H84.7503ZM136.967 75.0468L137.468 74.1814L85.2513 43.9513L84.7503 44.8167L84.2492 45.6821L136.466 75.9123L136.967 75.0468Z" fill="white" mask="url(#path-1-inside-1_350_915)"/>
        </g>
        <defs>
        <filter id="filter0_f_350_915" x="0.331055" y="0.520508" width="209" height="149.053" filterUnits="userSpaceOnUse" color-interpolation-filters="sRGB">
        <feFlood flood-opacity="0" result="BackgroundImageFix"/>
        <feBlend mode="normal" in="SourceGraphic" in2="BackgroundImageFix" result="shape"/>
        <feGaussianBlur stdDeviation="2" result="effect1_foregroundBlur_350_915"/>
        </filter>
        </defs>
    </symbol>

    <symbol id="mail" width="32" height="25" viewBox="0 0 32 25" fill="none" xmlns="http://www.w3.org/2000/svg">
        <path d="M3.33191 24.9785C2.52574 24.9785 1.85316 24.709 1.31416 24.17C0.775156 23.631 0.505073 22.9578 0.503906 22.1505V3.30652C0.503906 2.50035 0.77399 1.82777 1.31416 1.28877C1.85432 0.749765 2.52632 0.479682 3.33016 0.478516H29.1777C29.9827 0.478516 30.6547 0.748599 31.1937 1.28877C31.7327 1.82893 32.0027 2.50152 32.0039 3.30652V22.1523C32.0039 22.9573 31.7338 23.6298 31.1937 24.17C30.6535 24.7102 29.9815 24.9797 29.1777 24.9785H3.33191ZM16.2539 12.9315L30.2539 3.77727L29.7149 2.22852L16.2539 10.9785L2.79291 2.22852L2.25391 3.77727L16.2539 12.9315Z" fill="#828282"/>
    </symbol>



  

</svg>